<?xml version="1.0" standalone="no"?>
<!DOCTYPE svg PUBLIC "-//W3C//DTD SVG 1.1//EN" "http://www.w3.org/Graphics/SVG/1.1/DTD/svg11.dtd" >
<svg xmlns="http://www.w3.org/2000/svg" xmlns:xlink="http://www.w3.org/1999/xlink" version="1.1">
<metadata></metadata>
<defs>
<font id="bw_quinta_promedium" horiz-adv-x="1064" >
<font-face units-per-em="2048" ascent="1536" descent="-512" />
<missing-glyph horiz-adv-x="546" />
<glyph unicode="&#xfb01;" horiz-adv-x="1130" d="M31 895v78l137 35v198q0 154 76.5 242t222.5 88q88 0 146 -10t120 -33q33 -14 29 -31l-14 -80q-3 -19 -10.5 -28.5t-20.5 -3.5q-86 28 -207 28q-86 0 -123 -45t-37 -159v-156h584q31 0 31 -31v-956q0 -31 -31 -31h-121q-31 0 -31 31v833h-432v-833q0 -31 -31 -31h-120 q-31 0 -31 31v833h-107q-30 0 -30 31z" />
<glyph unicode="&#xfb02;" horiz-adv-x="1288" d="M31 895v78l137 35v198q0 154 76 242t219 88q93 0 209 -43q32 -14 28 -31l-14 -80q-3 -19 -10.5 -28.5t-20.5 -3.5q-86 28 -145 28q-86 0 -123 -45t-37 -159v-156h246q31 0 31 -31v-92q0 -31 -31 -31h-246v-833q0 -31 -31 -31h-120q-31 0 -31 31v833h-107q-30 0 -30 31z M811 303v1202q0 31 31 31h121q30 0 30 -31v-1151q0 -122 13 -170.5t55 -48.5q50 0 129 35q25 9 31 -20l18 -89q2 -6 0.5 -10.5t-8 -8.5t-9.5 -5.5t-12 -5.5q-11 -6 -33 -15t-73 -22.5t-92 -13.5q-72 0 -114 25.5t-64.5 97t-22.5 200.5z" />
<glyph horiz-adv-x="0" />
<glyph horiz-adv-x="682" />
<glyph unicode="&#xd;" horiz-adv-x="546" />
<glyph unicode=" "  horiz-adv-x="546" />
<glyph unicode="&#x09;" horiz-adv-x="546" />
<glyph unicode="&#xa0;" horiz-adv-x="546" />
<glyph unicode="!" horiz-adv-x="477" d="M115 94q0 54 35 84.5t88 30.5t87.5 -30.5t34.5 -84.5q0 -59 -33.5 -86.5t-88.5 -27.5t-89 27.5t-34 86.5zM143 1444l11 -1038q0 -31 30 -31h109q31 0 31 31l10 1038q0 31 -31 31h-129q-31 0 -31 -31z" />
<glyph unicode="&#x22;" horiz-adv-x="544" d="M25 1569q-3 35 30 35h144q15 0 23.5 -10t6.5 -25l-43 -361q-3 -26 -30 -26h-56q-12 0 -21.5 7t-10.5 19zM315 1569q-2 15 7 25t24 10h143q17 0 25 -9.5t6 -25.5l-41 -361q-3 -26 -33 -26h-55q-11 0 -20.5 7t-10.5 19z" />
<glyph unicode="#" horiz-adv-x="1075" d="M78 276l8 86q3 29 33 29h127l26 246h-122q-32 0 -29 33l8 86q3 28 33 28h127l20 205q3 29 33 29h104q32 0 29 -33l-22 -201h256l22 205q3 29 33 29h102q32 0 29 -33l-21 -201h125q32 0 29 -32l-10 -86q-2 -12 -11 -20.5t-22 -8.5h-127l-29 -246h127q32 0 29 -33l-10 -86 q-3 -28 -31 -28h-129l-24 -215q-3 -29 -33 -29h-103q-31 0 -28 33l24 211h-258l-24 -215q-3 -29 -33 -29h-100q-32 0 -29 33l22 211h-123q-31 0 -28 32zM410 391h256l26 246h-256z" />
<glyph unicode="$" horiz-adv-x="1110" d="M109 174l53 84q8 12 20.5 14t26.5 -8q86 -65 153.5 -93.5t163.5 -31.5v496l-12 6q-44 20 -64.5 30t-59.5 29.5t-58.5 32t-50 34t-46 39t-36 43t-29.5 51t-16 57.5t-7 67q0 159 100 259t279 110v137q0 31 31 31h27q30 0 30 -31v-139q180 -12 328 -117q21 -15 4 -45 l-53 -78q-21 -33 -59 -10q-114 78 -220 90v-432l35 -17q55 -25 84.5 -39.5t74 -39.5t68.5 -45t53 -51.5t43.5 -64.5t25 -77t10.5 -96q0 -170 -106.5 -271t-287.5 -116v-140q0 -30 -30 -30h-27q-31 0 -31 30v138q-124 3 -214 38.5t-197 114.5q-24 17 -6 41zM334 1032 q0 -57 49.5 -102.5t142.5 -89.5v391q-92 -10 -142 -67t-50 -132zM614 143q101 16 155 77.5t54 141.5q0 77 -55.5 131t-153.5 101v-451z" />
<glyph unicode="%" horiz-adv-x="1568" d="M78 727q0 132 78 221.5t206 89.5q129 0 206 -89t77 -222q0 -141 -76 -226t-207 -85q-130 0 -207 85.5t-77 225.5zM215 727q0 -86 41.5 -134t105.5 -48t105 48t41 134q0 81 -42 131.5t-104 50.5q-63 0 -105 -51t-42 -131zM373 11q-5 11 6 26l643 960q15 21 37 21h112 q19 0 25 -11t-4 -26l-647 -961q-14 -20 -35 -20h-113q-19 0 -24 11zM924 291q0 132 78 221.5t204 89.5q129 0 206 -89t77 -222q0 -141 -76 -226t-207 -85q-128 0 -205 85.5t-77 225.5zM1061 291q0 -85 41.5 -133.5t103.5 -48.5q64 0 105 48.5t41 133.5q0 81 -42 131.5 t-104 50.5q-61 0 -103 -51t-42 -131z" />
<glyph unicode="&#x26;" horiz-adv-x="1308" d="M78 455q0 160 61 265.5t183 166.5q-80 125 -80 243q0 92 30 163t83.5 114.5t122 65.5t149.5 22q189 0 352 -123q20 -15 10 -43l-41 -76q-20 -42 -57 -18q-70 50 -122 75t-114 25q-97 0 -164 -50t-67 -159q0 -53 20.5 -103.5t77.5 -125.5q49 -66 373 -444q22 58 72 237 q9 32 41 19l96 -50q24 -11 18 -38q-58 -198 -108 -304q200 -235 239 -280q12 -15 6.5 -26t-24.5 -11h-135q-22 0 -39 20q-14 16 -58.5 66t-66.5 76q-71 -87 -165 -134.5t-241 -47.5q-100 0 -180 29t-130 75.5t-83 110t-46 127.5t-13 133zM264 455q0 -41 8 -82t29 -84 t52.5 -75.5t82.5 -53.5t115 -21q92 0 155.5 39t114.5 113q-352 401 -395 452q-81 -40 -121.5 -108.5t-40.5 -179.5z" />
<glyph unicode="'" horiz-adv-x="253" d="M25 1569q-3 35 30 35h144q15 0 23.5 -10t6.5 -25l-43 -361q-3 -26 -30 -26h-56q-12 0 -21.5 7t-10.5 19z" />
<glyph unicode="(" horiz-adv-x="544" d="M100 588q0 -233 59 -445t177 -448q12 -23 35 -23h80q17 0 23.5 10t0.5 25q-199 485 -199 881q0 400 199 882q6 15 -0.5 25t-23.5 10h-80q-24 0 -35 -22q-116 -234 -176 -450.5t-60 -444.5z" />
<glyph unicode=")" horiz-adv-x="546" d="M72 -293q-6 -15 0.5 -25t23.5 -10h78q24 0 35 23q117 235 176 447.5t59 445.5q0 228 -59.5 445t-175.5 450q-11 22 -35 22h-78q-17 0 -23.5 -10t-0.5 -25q196 -475 196 -882q0 -403 -196 -881z" />
<glyph unicode="*" horiz-adv-x="708" d="M39 1190l37 110q3 12 13 16t22 -3l184 -82l-25 203q-1 13 6 21.5t21 8.5h115q29 0 26 -30l-24 -199l182 84q12 5 22 0.5t13 -16.5l37 -109q9 -28 -21 -35l-190 -39l137 -145q20 -24 -4 -41l-94 -66q-11 -9 -21 -6t-16 15l-103 180l-102 -185q-6 -11 -17 -13t-22 5l-92 68 q-23 17 -4 39l135 147l-195 39q-12 2 -18 11.5t-2 21.5z" />
<glyph unicode="+" horiz-adv-x="1112" d="M123 471v90q0 31 31 31h311v319q0 31 31 31h120q31 0 31 -31v-319h311q31 0 31 -31v-90q0 -31 -31 -31h-311v-327q0 -31 -31 -31h-120q-31 0 -31 31v327h-311q-31 0 -31 31z" />
<glyph unicode="," horiz-adv-x="425" d="M51 -152l142 334q6 15 20 20t27 -3l118 -68q14 -8 17.5 -21.5t-6.5 -27.5l-215 -291q-15 -18 -39 -8l-52 29q-21 14 -12 36z" />
<glyph unicode="-" horiz-adv-x="690" d="M47 475v90q0 31 31 31h532q31 0 31 -31v-90q0 -31 -31 -31h-532q-31 0 -31 31z" />
<glyph unicode="." horiz-adv-x="344" d="M49 94q0 54 35 84.5t88 30.5t88 -30.5t35 -84.5q0 -59 -34 -86.5t-89 -27.5t-89 27.5t-34 86.5z" />
<glyph unicode="/" horiz-adv-x="710" d="M31 -139l481 1655q6 20 37 20h113q31 0 20 -37l-483 -1655q-6 -20 -35 -20h-115q-29 0 -18 37z" />
<glyph unicode="0" horiz-adv-x="1122" d="M78 508q0 151 59.5 271.5t170 189.5t253.5 69q214 0 347.5 -150t133.5 -380q0 -229 -133.5 -378.5t-347.5 -149.5q-143 0 -253.5 69t-170 189t-59.5 270zM264 508q0 -100 32 -181.5t100.5 -134.5t164.5 -53q133 0 215 109t82 260q0 152 -82 260.5t-215 108.5t-215 -108.5 t-82 -260.5z" />
<glyph unicode="1" horiz-adv-x="649" d="M82 842q-15 30 10 43l246 133q17 10 39 10h110q31 0 31 -31v-966q0 -31 -31 -31h-120q-31 0 -31 31l4 803l-162 -86q-39 -19 -57 18z" />
<glyph unicode="2" horiz-adv-x="921" d="M80 94q-5 35 1 55t30 41l329 281q6 5 28.5 23.5t29.5 24.5t26.5 23t27.5 25.5t23 24.5t22 26t17 25.5t14 28.5t7.5 28.5t3.5 30.5q0 70 -50.5 108t-135.5 38q-126 0 -258 -72q-40 -20 -58 18l-35 72q-15 24 11 43q158 100 344 100q71 0 135 -16.5t117 -49.5t84.5 -88.5 t31.5 -127.5q0 -31 -4.5 -59t-15.5 -54.5t-19.5 -46.5t-28.5 -44t-30.5 -37.5t-36.5 -36.5t-35.5 -31.5t-38 -31.5t-34.5 -28l-275 -233h506q31 0 31 -31v-92q0 -31 -31 -31h-629q-58 0 -77.5 21t-26.5 73z" />
<glyph unicode="3" horiz-adv-x="997" d="M84 -188l47 75q16 28 41 9q79 -55 139.5 -80t147.5 -25q130 0 202 73.5t72 192.5q0 99 -74 165.5t-219 66.5h-80q-30 0 -30 30v84q0 31 30 31h11q83 0 144 20t94 54.5t48 72.5t15 81q0 37 -14 73t-42 68.5t-78 53t-114 20.5q-111 0 -221 -74q-30 -20 -43 6l-43 80 q-12 28 6 43q141 106 334 106q187 0 294 -105.5t107 -270.5q0 -82 -45.5 -152t-124.5 -119q102 -43 167 -128t65 -206q0 -198 -116.5 -312t-346.5 -114q-113 0 -200 33.5t-165 104.5q-23 20 -8 43z" />
<glyph unicode="4" horiz-adv-x="1165" d="M81.5 140q3.5 12 20.5 42l514 879q16 24 39 18l113 -30q20 -5 24.5 -12.5t-4.5 -24.5l-507 -858h434v292q0 27 30 39l113 43q14 6 22.5 -4t8.5 -26v-344h166q30 0 30 -31v-92q0 -31 -30 -31h-166v-317q0 -31 -31 -31h-121q-30 0 -30 31v317h-519q-62 0 -80.5 19t-25.5 71 q-4 38 -0.5 50z" />
<glyph unicode="5" horiz-adv-x="1030" d="M82 -178l49 80q16 24 43 4q148 -115 287 -115q81 0 141.5 23.5t95 64t50.5 89t16 104.5q0 58 -17 105t-45.5 77t-67.5 50.5t-82 29t-91 8.5q-33 0 -65 -2.5t-64.5 -7.5t-52 -8.5t-53.5 -11t-42 -9.5q-13 -3 -22.5 5.5t-9.5 23.5v655q0 31 30 31h647q31 0 31 -31v-94 q0 -31 -31 -31h-499v-368q74 8 131 8q235 0 362 -107t127 -323q0 -93 -30 -171.5t-88 -139.5t-153.5 -95.5t-217.5 -34.5q-215 0 -373 150q-20 17 -6 41z" />
<glyph unicode="6" horiz-adv-x="1087" d="M78 498q0 189 23.5 312.5t68 203.5t127.5 166q158 165 428 241q31 7 41 -10l53 -88q7 -10 6.5 -24.5t-14.5 -18.5q-96 -25 -200.5 -79.5t-176.5 -129.5q-71 -73 -106.5 -143t-51.5 -191q158 125 336 125q398 0 398 -432q0 -85 -31 -164.5t-88.5 -144t-149.5 -103 t-204 -38.5q-123 0 -213.5 39.5t-143 111t-77.5 163t-25 204.5zM264 438q0 -41 8 -80.5t28 -79.5t49.5 -70.5t78 -49.5t109.5 -19q71 0 128 27.5t90 71t50.5 93t17.5 99.5q0 40 -4 72.5t-19 71.5t-40 65.5t-72 44.5t-110 18q-88 0 -179.5 -54.5t-132.5 -106.5h-2v-103z" />
<glyph unicode="7" horiz-adv-x="1034" d="M78 893v94q0 31 31 31h815q30 0 30 -31v-74q0 -16 -8 -32l-565 -1260q-11 -26 -39 -20l-131 37q-20 4 -24.5 12.5t3.5 23.5l549 1188h-630q-31 0 -31 31z" />
<glyph unicode="8" horiz-adv-x="1116" d="M78 399q0 128 68 217.5t169 128.5q-76 35 -126 104t-50 163q0 169 107 275t313 106q205 0 311.5 -106t106.5 -275q0 -94 -50 -163t-126 -104q101 -39 169 -128.5t68 -217.5q0 -187 -122 -303t-357 -116q-236 0 -358.5 115.5t-122.5 303.5zM264 399q0 -125 83.5 -192.5 t211.5 -67.5q127 0 210 67.5t83 192.5q0 106 -74.5 175t-218.5 69q-146 0 -220.5 -69t-74.5 -175zM326 1012q0 -94 66 -157.5t167 -66.5q100 3 166 66.5t66 157.5q0 97 -67.5 159t-164.5 62q-98 0 -165.5 -62t-67.5 -159z" />
<glyph unicode="9" horiz-adv-x="1087" d="M78 588q0 85 31 164.5t88.5 144t149.5 103t204 38.5q123 0 213.5 -39.5t143 -111.5t77.5 -163.5t25 -205.5q0 -185 -23.5 -306.5t-68 -201.5t-127.5 -166q-157 -165 -429 -241q-30 -7 -40 10l-54 88q-7 10 -6.5 24.5t14.5 18.5q94 24 199.5 79.5t177.5 129.5 q73 74 107.5 140.5t50.5 187.5q-154 -125 -336 -125q-397 0 -397 432zM264 588q0 -273 246 -273q88 0 178.5 54t132.5 106h2v105q0 41 -7.5 80t-27 79t-49.5 70t-78.5 49t-109.5 19q-71 0 -128 -27t-90.5 -70.5t-51 -93t-17.5 -98.5z" />
<glyph unicode=":" horiz-adv-x="344" d="M49 94q0 54 35 84.5t88 30.5t88 -30.5t35 -84.5q0 -59 -34 -86.5t-89 -27.5t-89 27.5t-34 86.5zM49 924q0 54 35 84t88 30t88 -30t35 -84q0 -59 -34 -87t-89 -28t-89 28t-34 87z" />
<glyph unicode=";" horiz-adv-x="450" d="M51 -152l142 334q6 15 20 20t27 -3l118 -68q14 -8 17.5 -21.5t-6.5 -27.5l-215 -291q-15 -18 -39 -8l-52 29q-21 14 -12 36zM156 924q0 54 35 84t88 30t87.5 -30t34.5 -84q0 -60 -33.5 -87.5t-88.5 -27.5t-89 28t-34 87z" />
<glyph unicode="&#x3c;" horiz-adv-x="1105" d="M106 471v86q0 22 25 33l834 420q15 7 24.5 -1t9.5 -26v-104q0 -26 -24 -37l-692 -328l692 -330q24 -11 24 -37v-104q0 -18 -9.5 -25t-24.5 0l-834 418q-25 11 -25 35z" />
<glyph unicode="=" horiz-adv-x="1112" d="M137 260v90q0 31 31 31h778q31 0 31 -31v-90q0 -31 -31 -31h-778q-31 0 -31 31zM137 682v90q0 31 31 31h778q31 0 31 -31v-90q0 -31 -31 -31h-778q-31 0 -31 31z" />
<glyph unicode="&#x3e;" horiz-adv-x="1105" d="M106 43v104q0 26 25 37l692 330l-692 328q-25 11 -25 37v104q0 18 10 26t25 1l834 -420q24 -10 24 -33v-86q0 -25 -24 -35l-834 -418q-15 -7 -25 0.5t-10 24.5z" />
<glyph unicode="?" horiz-adv-x="811" d="M41 1321q-17 23 6 43q81 67 156 99t182 32q58 0 111.5 -10t106 -35.5t90.5 -63.5t61.5 -99t23.5 -138q0 -55 -21.5 -105.5t-62 -94.5t-77.5 -75t-89 -67q-51 -37 -76.5 -64.5t-41 -73t-15.5 -114.5v-2l-2 -147q0 -31 -31 -31h-108q-31 0 -31 31l-2 147v2q0 73 18 133.5 t52.5 106t65 74t73.5 59.5q42 32 64.5 51t48.5 48t37.5 59t11.5 65q0 81 -55.5 132.5t-155.5 51.5q-71 0 -126 -22t-118 -76q-26 -20 -45 6zM186 94q0 54 35 84.5t88 30.5t88 -30.5t35 -84.5q0 -59 -34 -86.5t-89 -27.5t-89 27.5t-34 86.5z" />
<glyph unicode="@" horiz-adv-x="2103" d="M100 489q0 225 54.5 401t145.5 288t220.5 185t269.5 102.5t302 29.5q155 0 287.5 -31t248.5 -102.5t198 -179t128.5 -268t46.5 -363.5q0 -77 -10 -143t-36.5 -131t-68.5 -111t-111 -74.5t-159 -28.5q-246 0 -328 179l-2 -2q-12 -16 -22 -27.5t-44 -42.5t-66.5 -51.5 t-82.5 -38t-100 -17.5q-344 0 -344 439q0 212 108.5 326t317.5 114q159 0 346 -18q24 -3 24 -25v-350q0 -41 1 -69t5 -65t12 -62t22 -51.5t34 -42.5t50.5 -26t68.5 -10q201 0 201 328q0 211 -53 365t-151.5 244.5t-227.5 132.5t-293 42q-805 0 -805 -846q0 -159 26 -288 t74.5 -219.5t112.5 -156.5t145 -104t166.5 -55.5t183.5 -17.5q121 0 243 35t206 86q26 18 43 -9l61 -96q8 -12 5 -24.5t-15 -18.5q-110 -59 -254.5 -96t-288.5 -37q-895 0 -895 1001zM811 502q-9 -279 184 -279q113 0 256 148q-10 74 -10 178v227q-94 6 -182 6 q-129 0 -186 -72.5t-62 -207.5z" />
<glyph unicode="A" horiz-adv-x="1310" d="M37 35l508 1415q9 25 35 25h151q26 0 35 -25l508 -1415q6 -15 -1 -25t-24 -10h-141q-26 0 -35 25l-112 335h-611l-112 -335q-9 -25 -35 -25h-142q-17 0 -23.5 10t-0.5 25zM408 532h495l-248 738z" />
<glyph unicode="B" horiz-adv-x="1150" d="M172 31v1413q0 15 7 22.5t24 8.5q212 20 315 20q251 0 361 -103.5t110 -297.5q0 -196 -176 -293q238 -96 238 -365q0 -206 -126 -331t-366 -125q-144 0 -356 20q-17 1 -24 8.5t-7 22.5zM362 156q153 -9 199 -9q132 0 212.5 71t80.5 218q0 260 -315 260q-142 0 -177 -2 v-538zM362 848h113q169 0 243.5 62.5t74.5 183.5q0 117 -71 175t-202 58q-75 0 -158 -6v-473z" />
<glyph unicode="C" horiz-adv-x="1204" d="M100 737q0 378 162 568t465 190q239 0 385 -100q9 -6 11 -17t-3 -20l-59 -105q-7 -14 -22.5 -16t-30.5 8q-136 82 -283 82q-203 0 -315.5 -154t-112.5 -436t112.5 -436t315.5 -154q164 0 334 117q17 12 30 12q15 0 25 -16l57 -92q6 -9 5.5 -20t-9.5 -17 q-84 -64 -201.5 -107.5t-238.5 -43.5q-303 0 -465 189.5t-162 567.5z" />
<glyph unicode="D" horiz-adv-x="1370" d="M172 31v1413q0 28 31 31q190 20 340 20q170 0 302 -44t227.5 -135t145.5 -237t50 -342q0 -365 -191.5 -561t-533.5 -196q-155 0 -340 20q-31 3 -31 31zM362 154q86 -7 181 -7q252 0 390 144.5t138 445.5q0 302 -138 446t-390 144q-34 0 -181 -6v-1167z" />
<glyph unicode="E" horiz-adv-x="1067" d="M172 31v1413q0 31 31 31h702q31 0 31 -31v-111q0 -30 -31 -30h-543v-457h472q30 0 30 -31v-110q0 -31 -30 -31h-472v-502h566q30 0 30 -31v-110q0 -31 -30 -31h-725q-31 0 -31 31z" />
<glyph unicode="F" horiz-adv-x="1034" d="M172 31v1413q0 31 31 31h733q31 0 31 -31v-111q0 -30 -31 -30h-574v-478h467q31 0 31 -30v-111q0 -31 -31 -31h-467v-622q0 -31 -30 -31h-129q-31 0 -31 31z" />
<glyph unicode="G" horiz-adv-x="1388" d="M100 737q0 376 170 567t475 191q254 0 400 -100q9 -6 11 -17t-3 -20l-57 -105q-7 -14 -23 -16t-31 8q-136 82 -299 82q-206 0 -326 -155t-120 -435q0 -282 112.5 -436t315.5 -154q145 0 340 140v358h-320q-30 0 -30 31v110q0 31 30 31h480q30 0 30 -31v-110v-4v-4v-416 q0 -110 21 -221q3 -14 -6 -22.5t-25 -8.5h-53q-86 0 -107 106q-77 -54 -172 -90t-186 -36q-303 0 -465 189.5t-162 567.5z" />
<glyph unicode="H" horiz-adv-x="1413" d="M172 31v1413q0 31 31 31h129q30 0 30 -31v-610h689v610q0 31 30 31h129q31 0 31 -31v-1413q0 -31 -31 -31h-129q-30 0 -30 31v633h-689v-633q0 -31 -30 -31h-129q-31 0 -31 31z" />
<glyph unicode="I" horiz-adv-x="532" d="M172 31v1413q0 31 31 31h129q30 0 30 -31v-1413q0 -31 -30 -31h-129q-31 0 -31 31z" />
<glyph unicode="J" horiz-adv-x="692" d="M35 49l20 101q5 16 11 22t18 2q98 -27 158 -27q64 0 91 44.5t27 162.5v1090q0 31 31 31h129q31 0 31 -31v-1137q0 -181 -63 -254t-201 -73q-122 0 -224 38q-10 4 -15 6.5t-10 9.5t-3 15z" />
<glyph unicode="K" horiz-adv-x="1214" d="M172 31v1413q0 31 31 31h129q30 0 30 -31v-809l547 819q15 21 37 21h160q19 0 25 -11t-5 -26l-452 -662l500 -739q10 -15 4 -26t-25 -11h-160q-23 0 -37 20l-409 623l-185 -274v-338q0 -31 -30 -31h-129q-31 0 -31 31z" />
<glyph unicode="L" horiz-adv-x="974" d="M172 31v1413q0 31 31 31h129q30 0 30 -31v-1272h549q31 0 31 -31v-110q0 -31 -31 -31h-708q-31 0 -31 31z" />
<glyph unicode="M" horiz-adv-x="1632" d="M172 31v1413q0 31 31 31h94q24 0 37 -19l483 -723l481 723q13 19 37 19h97q30 0 30 -31v-1413q0 -31 -30 -31h-129q-31 0 -31 31l8 1071l-395 -594q-24 -33 -66 -35h-2h-2q-43 2 -63 35l-400 594l10 -1071q0 -31 -30 -31h-129q-31 0 -31 31z" />
<glyph unicode="N" horiz-adv-x="1413" d="M172 31v1413q0 31 31 31h94q24 0 37 -19l729 -1081l-12 1069q0 31 30 31h129q31 0 31 -31v-1413q0 -31 -31 -31h-92q-25 0 -37 18l-731 1084l12 -1071q0 -31 -30 -31h-129q-31 0 -31 31z" />
<glyph unicode="O" horiz-adv-x="1527" d="M100 737q0 378 172 568t492 190q319 0 490 -190t171 -568t-170.5 -567.5t-490.5 -189.5t-492 189.5t-172 567.5zM297 737q0 -289 122.5 -439.5t344.5 -150.5q221 0 343 150.5t122 439.5t-122 439.5t-343 150.5q-222 0 -344.5 -150.5t-122.5 -439.5z" />
<glyph unicode="P" horiz-adv-x="1122" d="M172 31v1413q0 28 31 31q212 20 356 20q248 0 372 -118t124 -324q0 -97 -31 -175t-81.5 -128.5t-119 -84.5t-139.5 -48.5t-147 -14.5q-136 0 -175 2v-573q0 -31 -30 -31h-129q-31 0 -31 31zM362 774q78 -4 177 -4q158 0 237.5 80t79.5 203q0 127 -74.5 200.5t-220.5 73.5 q-63 0 -199 -8v-545z" />
<glyph unicode="Q" horiz-adv-x="1527" d="M100 737q0 378 172 568t492 190t491.5 -190t171.5 -568t-185 -575q-163 -173 -453 -173q-40 0 -82 3q167 -83 440 -139l82 -17q31 -7 24 -45l-20 -98q-3 -15 -16.5 -22.5t-28.5 -4.5l-70 17q-280 66 -489.5 180t-331.5 258q-88 103 -142.5 268t-54.5 348zM297 737 q0 -310 116.5 -450t350.5 -140q222 0 344.5 150.5t122.5 439.5t-122.5 439.5t-344.5 150.5t-344.5 -150.5t-122.5 -439.5z" />
<glyph unicode="R" horiz-adv-x="1179" d="M172 31v1413q0 28 31 31q212 20 356 20q250 0 373 -116.5t123 -331.5q0 -162 -83 -266.5t-216 -151.5l389 -592q10 -15 4 -26t-25 -11h-159q-26 0 -37 20l-350 572q-12 -2 -41 -2q-136 0 -175 2v-561q0 -31 -30 -31h-129q-31 0 -31 31zM362 758q78 -4 177 -4 q157 0 237 84.5t80 208.5q0 136 -73.5 208t-221.5 72q-63 0 -199 -8v-561z" />
<glyph unicode="S" horiz-adv-x="1081" d="M109 170l61 96q17 28 45 6q95 -72 155 -98.5t158 -26.5q108 0 181 68t73 172q0 33 -7.5 63t-17.5 52t-30.5 44.5t-36 36.5t-44.5 32.5t-45 27t-50 26.5t-47 25q-150 79 -202 118q-117 87 -140 211q-6 35 -6 75q0 187 111.5 292t291.5 105q204 0 373 -121q22 -16 4 -45 l-57 -86q-12 -19 -31 -19q-13 0 -29 9q-75 47 -130 68.5t-120 21.5q-90 0 -153.5 -55t-63.5 -158q0 -29 8.5 -55.5t27.5 -49t37.5 -40t50.5 -37t53 -31.5t58.5 -31.5t55.5 -29.5q140 -76 191 -116q113 -90 137 -228q8 -46 8 -99q0 -130 -62.5 -225.5t-161.5 -141.5t-220 -46 q-133 0 -220.5 33.5t-199.5 115.5q-24 17 -6 41z" />
<glyph unicode="T" d="M35 1333v111q0 31 31 31h933q31 0 31 -31v-111q0 -30 -31 -30h-372v-1272q0 -31 -31 -31h-129q-31 0 -31 31v1272h-370q-31 0 -31 30z" />
<glyph unicode="U" horiz-adv-x="1347" d="M141 535v909q0 31 31 31h129q31 0 31 -31v-909q0 -184 84 -286t256 -102q175 0 259.5 101.5t84.5 286.5v909q0 31 31 31h129q30 0 30 -31v-909q0 -267 -135.5 -411t-398.5 -144q-262 0 -396.5 144t-134.5 411z" />
<glyph unicode="V" horiz-adv-x="1292" d="M37 1440q-5 16 1 25.5t23 9.5h138q25 0 34 -25l414 -1241l412 1241q9 25 35 25h139q17 0 23 -9.5t1 -25.5l-497 -1415q-9 -25 -35 -25h-156q-25 0 -34 25z" />
<glyph unicode="W" horiz-adv-x="1873" d="M37 1440q-5 16 1 25.5t23 9.5h138q28 0 34 -25l377 -1223l230 756l-148 457q-10 35 25 35h137q29 0 35 -25l375 -1223l374 1223q9 25 35 25h139q17 0 23.5 -10t1.5 -25l-461 -1415q-9 -25 -35 -25h-153q-26 0 -35 25l-217 661l-215 -661q-9 -25 -35 -25h-154 q-25 0 -34 25z" />
<glyph unicode="X" horiz-adv-x="1236" d="M37 1464q6 11 26 11h144q24 0 39 -21l383 -586l366 586q12 21 37 21h146q18 0 23.5 -11t-3.5 -26l-463 -717l457 -684q10 -15 4 -26t-25 -11h-145q-23 0 -37 20l-377 576l-362 -576q-14 -20 -35 -20h-147q-19 0 -24.5 11t5.5 26l457 706l-465 695q-10 15 -4 26z" />
<glyph unicode="Y" horiz-adv-x="1222" d="M37 1464q6 11 26 11h142q27 0 39 -21l366 -635l367 635q12 21 39 21h143q20 0 26 -11t-3 -26l-475 -799v-608q0 -31 -31 -31h-129q-31 0 -31 31v608l-475 799q-10 15 -4 26z" />
<glyph unicode="Z" horiz-adv-x="1105" d="M70 94q-4 28 2 46t26 50l709 1113h-653q-31 0 -31 30v111q0 31 31 31h852q30 0 30 -31v-96q0 -17 -14 -37l-723 -1139h707q30 0 30 -31v-110q0 -31 -30 -31h-818q-37 0 -58.5 4t-33.5 18t-16.5 27.5t-9.5 44.5z" />
<glyph unicode="[" horiz-adv-x="622" d="M172 -297v1772q0 30 31 30h321q31 0 31 -30v-86q0 -31 -31 -31h-190v-1538h190q31 0 31 -31v-86q0 -31 -31 -31h-321q-31 0 -31 31z" />
<glyph unicode="\" horiz-adv-x="710" d="M31 1499q-11 37 20 37h111q31 0 37 -20l481 -1655q11 -37 -18 -37h-113q-29 0 -35 20z" />
<glyph unicode="]" horiz-adv-x="622" d="M68 -211q0 31 30 31h191v1538h-191q-30 0 -30 31v86q0 30 30 30h324q31 0 31 -30v-1772q0 -31 -31 -31h-324q-30 0 -30 31v86z" />
<glyph unicode="^" horiz-adv-x="880" d="M80 731l280 725q8 19 27 19h105q18 0 26 -19l281 -725q4 -10 -1.5 -18t-17.5 -8h-112q-23 0 -29 18l-199 561l-200 -561q-6 -18 -29 -18h-113q-12 0 -17.5 7.5t-0.5 18.5z" />
<glyph unicode="_" horiz-adv-x="1138" d="M47 -168q0 31 31 31h983q31 0 31 -31v-49q0 -31 -31 -31h-983q-31 0 -31 31v49z" />
<glyph unicode="`" horiz-adv-x="419" d="M15 1351.5q-4 12.5 3 24.5l64 111q7 12 20 13.5t25 -7.5l270 -197q8 -6 9.5 -17.5t-3.5 -18.5l-30 -54q-10 -21 -35 -10l-305 137q-14 6 -18 18.5z" />
<glyph unicode="a" d="M78 297q0 157 112.5 239t323.5 82q69 0 229 -4v76q0 95 -60.5 141t-188.5 46q-122 0 -244 -60q-35 -14 -51 14l-37 76q-15 31 14 47q143 84 342 84q408 0 408 -319v-467q0 -115 20 -221q3 -14 -6 -22.5t-25 -8.5h-47q-45 0 -73.5 35.5t-36.5 97.5l-2 21 q-65 -65 -158 -119.5t-190 -54.5q-327 0 -330 317zM264 297q0 -158 176 -158q139 0 303 164v164q-168 4 -229 4q-129 0 -189.5 -47.5t-60.5 -126.5z" />
<glyph unicode="b" horiz-adv-x="1134" d="M129 31v1474q0 31 31 31h121q30 0 30 -31v-624q152 157 340 157q94 0 167 -33.5t117 -85.5t72.5 -124t39 -141.5t10.5 -145.5q0 -248 -140.5 -388t-373.5 -140q-171 0 -383 20q-31 3 -31 31zM311 147q160 -8 234 -8q155 0 240 91t85 278q0 51 -5 96t-21 97t-42.5 88 t-74.5 60.5t-111 24.5q-146 0 -305 -159v-568z" />
<glyph unicode="c" horiz-adv-x="950" d="M78 510q0 118 26.5 211t69.5 151.5t102 96.5t120 53.5t128 15.5q105 0 177.5 -24.5t152.5 -73.5q23 -16 6 -43l-39 -76q-10 -21 -29 -21q-12 0 -28 9q-112 68 -223 68q-136 0 -206.5 -94t-70.5 -273q0 -178 71 -274.5t206 -96.5q63 0 132 29.5t115 67.5q33 26 52 -3 l49 -79q13 -18 -15 -41q-57 -53 -147 -93q-88 -40 -198 -40h-5q-68 1 -129 16.5t-120.5 54t-102 97t-68.5 151.5t-26 211z" />
<glyph unicode="d" horiz-adv-x="1155" d="M78 508q0 250 138 390t370 140q90 0 237 -10v477q0 31 31 31h121q31 0 31 -31v-1253q0 -115 20 -221q3 -14 -6 -22.5t-25 -8.5h-47q-45 0 -73 35t-37 98l-4 29q-25 -30 -56.5 -58t-76 -58t-101 -48t-115.5 -18q-94 0 -167 33t-117.5 85.5t-73 124.5t-39 141t-10.5 144z M264 508q0 -51 5 -95.5t21.5 -96.5t43 -89t74.5 -61.5t112 -24.5q131 0 303 172v555q-129 9 -239 9q-320 0 -320 -369z" />
<glyph unicode="e" horiz-adv-x="1099" d="M78 508q0 260 127.5 395t349.5 135q106 0 190 -30.5t134.5 -77.5t83.5 -110t45 -121t12 -117v-2q0 -69 -31.5 -104.5t-107.5 -35.5l-615 -4q6 -83 32.5 -142t72 -93t104.5 -49q52 -13 117 -13h18q86 3 164.5 36.5t136.5 78.5q21 16 43 -21l43 -73q11 -21 -18 -39 q-182 -141 -406 -141q-71 0 -138 15.5t-133 54.5t-115 97.5t-79 151.5t-30 209zM266 582h572q-9 153 -74.5 224t-214.5 71q-132 0 -201.5 -70t-81.5 -225z" />
<glyph unicode="f" horiz-adv-x="681" d="M31 895v78l137 35v198q0 154 76 242t219 88q93 0 209 -43q32 -14 28 -31l-14 -80q-3 -19 -10.5 -28.5t-20.5 -3.5q-86 28 -145 28q-86 0 -123 -45t-37 -159v-156h246q31 0 31 -31v-92q0 -31 -31 -31h-246v-833q0 -31 -31 -31h-120q-31 0 -31 31v833h-107q-30 0 -30 31z " />
<glyph unicode="g" horiz-adv-x="1134" d="M78 508q0 250 138 390t370 140q177 0 389 -20q31 -3 31 -31v-852q0 -185 -28 -307t-93.5 -199t-165 -109t-250.5 -32q-133 0 -287 49q-33 10 -28 31l14 82q7 41 31 33q151 -41 247 -41q111 0 181.5 20.5t115 71.5t62.5 132t18 208v76q-62 -68 -148 -119t-190 -51 q-94 0 -167 33t-117.5 85.5t-73 124.5t-39 141t-10.5 144zM264 508q0 -51 5 -95.5t21.5 -96.5t43 -89t74.5 -61.5t112 -24.5q136 0 303 172v555q-129 9 -239 9q-320 0 -320 -369z" />
<glyph unicode="h" horiz-adv-x="1134" d="M129 31v1474q0 31 31 31h121q30 0 30 -31v-633q157 166 348 166q81 0 142 -19.5t108.5 -63.5t72 -123t24.5 -191v-610q0 -31 -31 -31h-121q-31 0 -31 31v526q0 67 -4.5 113t-18.5 87.5t-38.5 65.5t-65 37.5t-98.5 13.5q-154 0 -287 -157v-686q0 -31 -30 -31h-121 q-31 0 -31 31z" />
<glyph unicode="i" horiz-adv-x="466" d="M115 1339q0 53 33 82t85 29q53 0 86 -28.5t33 -82.5q0 -110 -119 -110q-53 0 -85.5 26.5t-32.5 83.5zM143 31q0 -31 31 -31h121q31 0 31 31v956q0 31 -31 31h-121q-31 0 -31 -31v-956z" />
<glyph unicode="j" horiz-adv-x="477" d="M-178 -442l14 80q7 40 31 32q87 -26 147 -26h7q71 0 101 41q30 43 30 163v1139q0 31 30 31h121q31 0 31 -31v-1192q0 -154 -61 -230.5t-197 -76.5q-121 0 -226 39q-30 13 -28 31zM123 1339q0 53 33.5 82t85.5 29q53 0 85.5 -28.5t32.5 -82.5q0 -110 -118 -110 q-54 0 -86.5 26.5t-32.5 83.5z" />
<glyph unicode="k" horiz-adv-x="1091" d="M129 31v1474q0 31 31 31h121q30 0 30 -31v-1034l453 526q15 21 37 21h143q19 0 26.5 -12t-5.5 -25l-383 -446l454 -498q12 -15 5.5 -26t-25.5 -11h-148q-20 0 -37 20l-362 410l-158 -174v-225q0 -31 -30 -31h-121q-31 0 -31 31z" />
<glyph unicode="l" horiz-adv-x="602" d="M125 303v1202q0 31 31 31h120q31 0 31 -31v-1151q0 -122 13 -170.5t55 -48.5q50 0 129 35q27 9 33 -20l18 -89q4 -16 -29 -30q-11 -5 -33.5 -14.5t-74 -23t-92.5 -13.5q-72 0 -114 25.5t-64.5 97t-22.5 200.5z" />
<glyph unicode="m" horiz-adv-x="1683" d="M129 31v956q0 31 31 31h45q50 0 78 -33t28 -94v-17q136 164 318 164q203 0 272 -149q125 149 334 149q319 0 319 -385v-622q0 -31 -30 -31h-121q-31 0 -31 31v547q0 162 -41.5 229t-156.5 67q-148 0 -242 -122q0 -4 1 -14t1 -15v-692q0 -31 -31 -31h-121q-30 0 -30 31 v567q0 154 -42.5 215t-156.5 61q-132 0 -242 -149v-694q0 -31 -30 -31h-121q-31 0 -31 31z" />
<glyph unicode="n" horiz-adv-x="1134" d="M129 31v956q0 31 31 31h45q50 0 78 -33t28 -94v-19q157 166 348 166q81 0 142 -19.5t108.5 -63.5t72 -123t24.5 -191v-610q0 -31 -31 -31h-121q-31 0 -31 31v526q0 67 -4.5 113t-18.5 87.5t-38.5 65.5t-65 37.5t-98.5 13.5q-154 0 -287 -157v-686q0 -31 -30 -31h-121 q-31 0 -31 31z" />
<glyph unicode="o" horiz-adv-x="1161" d="M78 508q0 141 37 244.5t105.5 165t158.5 91t203 29.5q230 0 365.5 -131t135.5 -399q0 -250 -138.5 -389t-362.5 -139q-226 0 -365 139t-139 389zM264 508q0 -369 318 -369q315 0 315 369t-315 369q-318 0 -318 -369z" />
<glyph unicode="p" horiz-adv-x="1134" d="M129 -481v1468q0 31 31 31h45q50 0 78 -33t28 -94v-10q152 157 340 157q94 0 167 -33.5t117 -85.5t72.5 -124t39 -141.5t10.5 -145.5q0 -248 -140.5 -388t-373.5 -140q-64 0 -232 8v-469q0 -31 -30 -31h-121q-31 0 -31 31zM311 147q160 -8 234 -8q155 0 240 91t85 278 q0 51 -5 96t-21 97t-42.5 88t-74.5 60.5t-111 24.5q-146 0 -305 -159v-568z" />
<glyph unicode="q" horiz-adv-x="1134" d="M78 508q0 249 140.5 389.5t373.5 140.5q171 0 383 -20q31 -3 31 -31v-1468q0 -31 -31 -31h-121q-31 0 -31 31v618q-152 -157 -338 -157q-94 0 -167 33t-117.5 85.5t-73 124.5t-39 141t-10.5 144zM264 508q0 -51 5 -95.5t21.5 -96.5t43 -89t74.5 -61.5t112 -24.5 q143 0 303 160v567q-120 9 -233 9q-156 0 -241 -90.5t-85 -278.5z" />
<glyph unicode="r" horiz-adv-x="667" d="M129 31v956q0 31 31 31h45q50 0 78 -33t28 -94v-12q124 107 287 155q19 6 30.5 -0.5t10.5 -23.5l-2 -144q0 -14 -7.5 -20.5t-23.5 -9.5q-150 -24 -222.5 -59.5t-72.5 -102.5v-643q0 -31 -30 -31h-121q-31 0 -31 31z" />
<glyph unicode="s" horiz-adv-x="854" d="M86 145l51 78q17 28 45 6q106 -90 224 -90q90 0 137 37t47 98q0 16 -3 30t-6.5 25t-13 23t-14.5 19.5t-20 18t-20.5 15t-24.5 14.5t-24 12.5t-27.5 13t-26.5 12.5q-19 10 -67 32t-72.5 34.5t-62 38t-57 49.5t-34.5 60.5t-15 78.5q0 128 89 208t249 80q169 0 279 -73 q23 -16 6 -43l-55 -86q-15 -24 -43 -7q-84 48 -178 48q-70 0 -115 -31t-45 -88q0 -21 10 -39.5t22 -31t37.5 -27.5t41 -22.5t49 -22t45.5 -19.5q44 -19 70.5 -32t63.5 -35t60 -45t45 -54t32.5 -70t10.5 -86q0 -89 -50.5 -157t-133 -102.5t-182.5 -34.5q-105 0 -174 29.5 t-144 92.5q-24 18 -6 43z" />
<glyph unicode="t" horiz-adv-x="733" d="M37 897v76l131 35v147q0 35 25 49l122 60q15 9 25 2t10 -27v-221h246q31 0 31 -31v-90q0 -31 -31 -31h-246v-526q0 -118 28 -162q27 -43 102 -43h3q61 0 152 27q24 8 31 -33l14 -78q2 -18 -29 -31q-108 -40 -229 -40q-137 0 -195.5 76t-58.5 231v579h-100q-31 0 -31 31z " />
<glyph unicode="u" horiz-adv-x="1130" d="M125 377v610q0 31 31 31h120q31 0 31 -31v-506q0 -193 49 -266.5t191 -73.5q132 0 252 138v708q0 31 30 31h121q31 0 31 -31v-735q0 -115 20 -221q3 -15 -5.5 -23t-24.5 -8h-47q-45 0 -74 35.5t-37 97.5v8q-161 -161 -352 -161q-336 0 -336 397z" />
<glyph unicode="v" horiz-adv-x="1009" d="M49 983q-6 15 1 25t24 10h135q26 0 35 -25l262 -770l260 770q6 25 35 25h135q17 0 24 -10t1 -25l-355 -958q-9 -25 -35 -25h-131q-25 0 -34 25z" />
<glyph unicode="w" horiz-adv-x="1482" d="M49 983q-5 15 1.5 25t23.5 10h135q29 0 35 -25l243 -778l170 522l-84 246q-5 15 1.5 25t23.5 10h121q29 0 35 -25l241 -774l244 774q6 25 35 25h135q35 0 25 -35l-334 -958q-9 -25 -35 -25h-125q-26 0 -35 25l-164 477l-163 -477q-9 -25 -35 -25h-125q-26 0 -35 25z" />
<glyph unicode="x" horiz-adv-x="974" d="M47.5 11q-5.5 11 5.5 26l330 483l-320 461q-9 15 -3 26t26 11h137q24 0 39 -21l234 -350l225 350q12 21 37 21h137q19 0 25 -11t-5 -26l-317 -473l324 -471q10 -15 4 -26t-25 -11h-137q-26 0 -37 20l-240 355l-239 -355q-11 -20 -35 -20h-141q-19 0 -24.5 11z" />
<glyph unicode="y" horiz-adv-x="1044" d="M49 983q-5 15 1.5 25t23.5 10h135q26 0 35 -25l272 -803l283 799q10 29 32 29h134q18 0 26 -9t2 -24l-542 -1462q-12 -35 -45 -35h-113q-34 0 -25 35l181 477h-25q-26 0 -35 25z" />
<glyph unicode="z" horiz-adv-x="940" d="M80 94q-4 33 1.5 52t27.5 47l524 669h-479q-31 0 -31 31v94q0 31 31 31h677q31 0 31 -31v-69q0 -17 -14 -37l-553 -727h534q31 0 31 -31v-92q0 -31 -31 -31h-610q-58 0 -87.5 11t-38 28.5t-13.5 54.5z" />
<glyph unicode="{" horiz-adv-x="626" d="M59 551v76q0 30 31 30h19q62 0 85 39.5t23 143.5v362q0 120 26 187t73.5 91.5t127.5 24.5h70q31 0 31 -30v-86q0 -31 -31 -31h-27q-63 0 -85.5 -39.5t-22.5 -155.5v-383q0 -116 -78 -190q78 -78 78 -193v-383q0 -116 22.5 -155t85.5 -39h27q31 0 31 -31v-86 q0 -31 -31 -31h-70q-80 0 -127.5 24.5t-73.5 91.5t-26 187v363q0 103 -23.5 142.5t-84.5 39.5h-19q-31 0 -31 31z" />
<glyph unicode="|" horiz-adv-x="493" d="M172 -145v1650q0 31 31 31h90q31 0 31 -31v-1650q0 -31 -31 -31h-90q-31 0 -31 31z" />
<glyph unicode="}" horiz-adv-x="626" d="M82 -211q0 31 31 31h26q63 0 86 39t23 155v383q0 115 78 193q-78 74 -78 190v383q0 116 -23 155.5t-86 39.5h-26q-31 0 -31 31v86q0 30 31 30h69q80 0 127.5 -24.5t74 -91.5t26.5 -187v-362q0 -104 23 -143.5t85 -39.5h19q30 0 30 -30v-76q0 -31 -30 -31h-19 q-61 0 -84.5 -39.5t-23.5 -142.5v-363q0 -120 -26.5 -187t-74 -91.5t-127.5 -24.5h-69q-31 0 -31 31v86z" />
<glyph unicode="~" horiz-adv-x="1091" d="M145 461q-17 23 0 43q111 123 193 135q62 10 218 -31t183 -41q38 0 69 14t79 56q28 25 43 -2l18 -25q13 -23 0 -41q-92 -127 -188 -141q-55 -9 -213.5 35.5t-190.5 44.5q-39 0 -71 -15t-78 -57q-25 -25 -45 4z" />
<glyph unicode="&#xa1;" horiz-adv-x="477" d="M115 862q0 58 34 86.5t89 28.5t88.5 -28.5t33.5 -86.5q0 -55 -34 -84.5t-88 -29.5t-88.5 29.5t-34.5 84.5zM143 -481q0 -31 31 -31h129q31 0 31 31l-10 1032q0 31 -31 31h-109q-30 0 -30 -31z" />
<glyph unicode="&#xa2;" horiz-adv-x="976" d="M78 510q0 136 34.5 237.5t95.5 161t133 90t159 37.5v140q0 30 30 30h27q31 0 31 -30v-140q90 -4 156 -28t137 -68q23 -16 6 -43l-39 -76q-8 -15 -23 -18.5t-32 6.5q-107 63 -205 68v-736q61 4 123 32t106 63q31 25 49 -3l49 -79q13 -18 -14 -41q-52 -48 -132 -87 t-181 -46v-138q0 -30 -31 -30h-27q-30 0 -30 30v140q-88 7 -160 37.5t-133 90t-95 161.5t-34 239zM264 510q0 -326 236 -365v727q-236 -39 -236 -362z" />
<glyph unicode="&#xa3;" horiz-adv-x="1015" d="M78 31v84q0 30 31 30h4q60 0 84 51.5t24 165.5v293h-106q-31 0 -31 31v90q0 31 31 31h106v256q0 330 361 330q156 0 272 -43q31 -13 29 -31l-15 -84q-7 -41 -30 -33q-109 31 -213 31q-127 0 -174.5 -42t-47.5 -161v-223h269q30 0 30 -31v-90q0 -31 -30 -31h-269v-344 q0 -90 -36 -157h507q31 0 31 -31v-92q0 -31 -31 -31h-765q-31 0 -31 31z" />
<glyph unicode="&#xa4;" horiz-adv-x="1124" d="M90 291q-23 23 0 43l123 125q-68 104 -68 231q0 124 68 232l-123 125q-21 25 0 43l74 73q24 21 43 2l125 -129q103 64 231 64q125 0 228 -64l127 127q22 21 43 0l73 -73q23 -23 0 -43l-125 -125q72 -104 72 -232t-70 -231l123 -125q22 -25 0 -43l-73 -74q-24 -21 -43 -2 l-125 129q-97 -63 -230 -63q-130 0 -231 63l-125 -127q-23 -23 -43 0zM303 690q0 -123 69.5 -199.5t190.5 -76.5q120 0 189 76.5t69 199.5q0 124 -68.5 200.5t-189.5 76.5t-190.5 -76.5t-69.5 -200.5z" />
<glyph unicode="&#xa5;" horiz-adv-x="1236" d="M37 1361q6 11 26 11h136q28 0 39 -20l380 -654l381 654q11 20 39 20h136q20 0 26 -11t-4 -26l-467 -782h260q31 0 31 -31v-90q0 -31 -31 -31h-278v-370q0 -31 -31 -31h-121q-31 0 -31 31v370h-278q-31 0 -31 31v90q0 31 31 31h258l-467 782q-10 15 -4 26z" />
<glyph unicode="&#xa6;" horiz-adv-x="493" d="M172 -145v634q0 31 31 31h90q31 0 31 -31v-634q0 -31 -31 -31h-90q-31 0 -31 31zM172 870v635q0 31 31 31h90q31 0 31 -31v-635q0 -30 -31 -30h-90q-31 0 -31 30z" />
<glyph unicode="&#xa7;" horiz-adv-x="1110" d="M109 -195l53 84q18 29 47 7q92 -69 163.5 -97t178.5 -28q132 0 202 65.5t70 161.5q0 22 -5.5 41.5t-18.5 38t-25 33t-35.5 30.5t-38.5 26t-46 25.5l-45 22.5t-49 22.5t-46 20.5q-44 20 -64.5 30t-59.5 29.5t-58.5 32t-50 34t-46 39t-36 43t-29.5 51t-16 57.5t-7 67 q0 171 103 266q-103 87 -103 219q0 167 109.5 268t304.5 101q114 0 203.5 -28t177.5 -91q21 -15 4 -45l-53 -78q-21 -33 -59 -10q-72 48 -131 70t-138 22q-111 0 -171 -58.5t-60 -141.5q0 -18 5 -34.5t16.5 -32t22.5 -27.5t33 -26t37.5 -23.5t45.5 -23.5t48 -22t53.5 -23.5 t53.5 -23.5q41 -19 66 -30.5t60 -30.5t56.5 -33.5t49.5 -35.5t44 -41.5t34 -47t27.5 -55.5t15.5 -64.5t6 -75.5q0 -154 -86 -249q86 -89 86 -236q0 -187 -125.5 -288t-333.5 -101q-133 0 -228 35.5t-206 117.5q-24 17 -6 41zM334 649q0 -38 23 -71.5t69.5 -63.5t92.5 -53.5 t116 -55.5q9 -4 14 -6q44 -20 129 -61q45 62 45 141q0 39 -17.5 74.5t-42.5 60t-66 50t-73.5 41.5t-80.5 38q-19 9 -29 13q-97 45 -113 53q-67 -67 -67 -160z" />
<glyph unicode="&#xa8;" horiz-adv-x="630" d="M14 1339q0 54 32.5 82.5t84.5 28.5q53 0 86 -28.5t33 -82.5q0 -110 -119 -110q-53 0 -85 26.5t-32 83.5zM381 1339q0 53 33.5 82t85.5 29q53 0 85.5 -28.5t32.5 -82.5q0 -110 -118 -110q-54 0 -86.5 26.5t-32.5 83.5z" />
<glyph unicode="&#xa9;" horiz-adv-x="1718" d="M100 737q0 156 54.5 294.5t151.5 241t240.5 162.5t311.5 60t311.5 -60t240.5 -162.5t151.5 -241t54.5 -294.5t-54.5 -294.5t-151.5 -241t-240.5 -162t-311.5 -59.5t-311.5 59.5t-240.5 162t-151.5 241t-54.5 294.5zM250 739q0 -169 72.5 -311.5t213 -230.5t322.5 -88 q138 0 253.5 51t192.5 138t119.5 201t42.5 240q0 125 -42.5 238.5t-119.5 200t-192.5 137.5t-253.5 51q-137 0 -252.5 -51t-192.5 -137.5t-120 -200t-43 -238.5zM504 737q0 201 95 304.5t269 103.5q150 0 256 -74q14 -14 4 -33l-32 -67q-6 -12 -21 -16t-26 3q-90 58 -181 58 q-215 0 -215 -279q0 -143 55.5 -213.5t180.5 -70.5q45 0 80.5 12t51.5 24t44 37q9 9 21 8t20 -12l37 -65q9 -16 -10 -31q-32 -28 -59.5 -46.5t-84.5 -37.5t-121 -18q-76 1 -138 21.5t-114.5 65.5t-82 128t-29.5 198z" />
<glyph unicode="&#xaa;" horiz-adv-x="686" d="M47 1184q0 148 78 229.5t213 81.5q149 0 248 -12q16 -2 16 -19v-432q0 -64 12 -129q3 -18 -18 -18h-45q-57 0 -70 78l-4 16q-89 -107 -196 -107q-55 0 -97 19.5t-67.5 50.5t-41.5 73.5t-22 83t-6 85.5zM182 1184q0 -80 28.5 -136.5t92.5 -56.5q75 0 166 96v287 q-47 2 -133 2q-69 0 -111.5 -46.5t-42.5 -145.5z" />
<glyph unicode="&#xab;" horiz-adv-x="929" d="M78 512q0 6 8 18l276 392q10 20 33 8l56 -33q19 -13 10 -35l-172 -350l172 -350q9 -22 -10 -35l-56 -33q-20 -12 -33 8l-276 392q-8 12 -8 18zM467 512q0 6 8 18l275 392q12 19 34 8l56 -33q19 -15 10 -35l-174 -350l174 -350q9 -20 -10 -35l-56 -33q-22 -11 -34 8 l-275 392q-8 12 -8 18z" />
<glyph unicode="&#xac;" horiz-adv-x="1112" d="M117 629v90q0 31 30 31h779q30 0 30 -31v-379q0 -31 -30 -31h-103q-30 0 -30 31v258h-646q-30 0 -30 31z" />
<glyph unicode="&#xad;" horiz-adv-x="690" d="M47 475v90q0 31 31 31h532q31 0 31 -31v-90q0 -31 -31 -31h-532q-31 0 -31 31z" />
<glyph unicode="&#xae;" horiz-adv-x="890" d="M78 1128q0 155 101.5 261t264.5 106t265 -106t102 -261q0 -156 -101.5 -261t-265.5 -105t-265 105t-101 261zM164 1130q0 -123 76.5 -207.5t203.5 -84.5q128 0 204.5 84.5t76.5 207.5q0 119 -77 204t-204 85q-126 0 -203 -85t-77 -204zM309 950v359q0 10 10 10 q66 8 119 8q72 0 114 -32.5t42 -94.5q0 -87 -76 -115l107 -133q4 -6 1.5 -10t-8.5 -4h-75q-12 0 -15 8l-94 125h-2h-39v-121q0 -12 -10 -12h-64q-10 0 -10 12zM393 1147h39q74 0 74 53q0 51 -68 51h-45v-104z" />
<glyph unicode="&#xaf;" horiz-adv-x="641" d="M14 1270v78q0 30 31 30h551q31 0 31 -30v-78q0 -31 -31 -31h-551q-31 0 -31 31z" />
<glyph unicode="&#xb0;" horiz-adv-x="534" d="M14 1376q0 111 64 183.5t190 72.5t189 -72.5t63 -183.5t-63 -183.5t-189 -72.5t-190 72.5t-64 183.5zM150 1376q0 -68 29 -98.5t89 -30.5q58 0 87.5 31t29.5 98t-29.5 98t-87.5 31q-60 0 -89 -30.5t-29 -98.5z" />
<glyph unicode="&#xb1;" horiz-adv-x="1112" d="M137 31v90q0 31 31 31h778q31 0 31 -31v-90q0 -31 -31 -31h-778q-31 0 -31 31zM137 604v90q0 31 31 31h297v262q0 31 31 31h120q31 0 31 -31v-262h299q31 0 31 -31v-90q0 -31 -31 -31h-299v-251q0 -31 -31 -31h-120q-31 0 -31 31v251h-297q-31 0 -31 31z" />
<glyph unicode="&#xb2;" horiz-adv-x="679" d="M70 692q-7 45 24 80q38 44 95 108.5t86 99t55 67.5q38 51 58 82.5t39 80.5t19 95q0 54 -38 84t-91 30q-51 0 -85.5 -10t-79.5 -33q-28 -16 -39 10l-25 74q-7 17 6 27q98 69 236 69q125 0 197.5 -61t72.5 -178q0 -81 -34.5 -152t-98.5 -155q-51 -68 -211 -254h336 q18 0 18 -19v-96q0 -18 -18 -18h-451q-36 0 -50 16.5t-21 52.5z" />
<glyph unicode="&#xb3;" horiz-adv-x="708" d="M72 721l47 76q12 17 26 6q71 -58 160 -58q68 0 109 41t41 105q0 61 -41 102t-119 41h-51q-19 0 -19 21v88q0 20 19 20h6q86 0 126 39t40 96q0 48 -33 84.5t-96 36.5q-64 0 -125 -37q-21 -11 -27 4l-43 76q-11 15 4 27q85 67 209 67q126 0 194 -68t68 -183 q0 -121 -104 -189q143 -59 143 -225q0 -283 -301 -283q-132 0 -227 86q-15 12 -6 27z" />
<glyph unicode="&#xb4;" horiz-adv-x="419" d="M13.5 1278.5q2.5 11.5 9.5 17.5l272 197q10 9 23.5 7.5t19.5 -13.5l63 -111q7 -12 3.5 -24.5t-15.5 -18.5l-307 -137q-22 -9 -35 10l-31 54q-5 7 -2.5 18.5z" />
<glyph unicode="&#xb6;" horiz-adv-x="1101" d="M78 1114q0 97 28 169t79 113t114 60t141 19h459q31 0 31 -31v-1925q0 -31 -31 -31h-94q-31 0 -31 31v1802h-211v-1802q0 -31 -31 -31h-92q-30 0 -30 31v1237q-150 7 -241 93.5t-91 264.5z" />
<glyph unicode="&#xb7;" horiz-adv-x="344" d="M49 604q0 54 35 84.5t88 30.5t88 -30.5t35 -84.5q0 -58 -34 -86.5t-89 -28.5t-89 28.5t-34 86.5z" />
<glyph unicode="&#xb8;" horiz-adv-x="382" d="M39 -391l2 49q0 27 35 27h49q90 0 90 77q0 74 -117 74h-14q-15 0 -22 9t-1 22l66 168h145l-59 -113q152 -18 152 -162q0 -71 -32.5 -118t-77.5 -64.5t-99 -17.5q-59 0 -95 12q-22 7 -22 37z" />
<glyph unicode="&#xb9;" horiz-adv-x="598" d="M82 1407q-11 18 8 27l195 108q12 6 24 6h99q18 0 18 -18v-885q0 -18 -18 -18h-113q-19 0 -19 18l3 741l-123 -65q-25 -11 -37 12z" />
<glyph unicode="&#xba;" horiz-adv-x="679" d="M47 1184q0 165 72.5 238t220.5 73q147 0 220 -74.5t73 -236.5q0 -153 -74.5 -232.5t-218.5 -79.5t-218.5 79.5t-74.5 232.5zM182 1184q0 -105 36 -149t122 -44t122 44t36 149q0 104 -36 148t-122 44t-122 -44t-36 -148z" />
<glyph unicode="&#xbb;" horiz-adv-x="929" d="M80 162l174 350l-174 350q-9 20 10 35l55 33q22 11 35 -8l275 -392q8 -12 8 -18t-8 -18l-275 -392q-13 -19 -35 -8l-55 33q-19 15 -10 35zM469 162l172 350l-172 350q-9 22 10 35l56 33q22 11 32 -8l277 -392q8 -12 8 -18t-8 -18l-277 -392q-13 -19 -32 -8l-56 33 q-19 13 -10 35z" />
<glyph unicode="&#xbc;" horiz-adv-x="1529" d="M82 1346q-10 17 8 26l195 109q12 6 24 6h99q18 0 18 -19v-884q0 -19 -18 -19h-113q-19 0 -19 19l3 741l-123 -65q-25 -11 -37 12zM175 8.5q-5 8.5 3 20.5l942 1431q12 15 29 15h121q15 0 20 -8.5t-4 -20.5l-944 -1432q-14 -14 -29 -14h-118q-15 0 -20 8.5zM817 260 q-8 38 10 72l334 616q8 19 25 13l98 -35q20 -7 12 -23l-307 -567h211v158q0 18 19 24l108 31q9 3 14 -3.5t5 -17.5v-192h96q18 0 18 -19v-94q0 -20 -18 -20h-96v-185q0 -18 -19 -18h-113q-18 0 -18 18v185h-278q-51 0 -73.5 13.5t-27.5 43.5z" />
<glyph unicode="&#xbd;" horiz-adv-x="1574" d="M82 1346q-10 17 8 26l195 109q12 6 24 6h99q18 0 18 -19v-884q0 -19 -18 -19h-113q-19 0 -19 19l3 741l-123 -65q-25 -11 -37 12zM169 8.5q-4 8.5 5 20.5l940 1431q12 15 29 15h123q15 0 19.5 -8.5t-3.5 -20.5l-946 -1432q-10 -14 -29 -14h-119q-15 0 -19 8.5zM965 70 q-6 41 24 80q41 47 96 109t84.5 97t55.5 68q38 50 59.5 82.5t40 81t18.5 94.5q0 54 -39 84.5t-92 30.5q-51 0 -85.5 -10t-79.5 -33q-28 -16 -39 10l-23 74q-9 14 6 26q95 70 234 70q125 0 197.5 -61.5t72.5 -178.5q0 -81 -34.5 -152t-98.5 -155q-36 -48 -209 -254h334 q18 0 18 -18v-97q0 -18 -18 -18h-451q-35 0 -49.5 17t-21.5 53z" />
<glyph unicode="&#xbe;" horiz-adv-x="1634" d="M72 659l49 76q12 18 24 6q70 -57 160 -57q68 0 109 40.5t41 104.5q0 61 -41 102.5t-119 41.5h-49q-21 0 -21 20v88q0 21 21 21h6q85 0 125.5 39.5t40.5 95.5q0 48 -34 84.5t-97 36.5q-64 0 -125 -37q-21 -11 -27 4l-43 76q-7 15 4 26q86 68 209 68q126 0 195 -68.5 t69 -183.5q0 -119 -106 -188q145 -60 145 -226q0 -136 -74.5 -209t-228.5 -73q-132 0 -227 86q-15 12 -6 26zM278 8.5q-4 8.5 5 20.5l940 1431q12 15 28 15h121q17 0 22 -8.5t-3 -20.5l-947 -1432q-10 -14 -28 -14h-119q-15 0 -19 8.5zM920 260q-5 39 12 72l332 616 q11 18 24 13l101 -35q20 -7 12 -23l-307 -567h211v158q0 18 18 24l107 31q9 3 13.5 -3.5t4.5 -17.5v-192h98q19 0 19 -19v-94q0 -20 -19 -20h-98v-185q0 -18 -18 -18h-111q-19 0 -19 18v185h-278q-51 0 -74 13.5t-28 43.5z" />
<glyph unicode="&#xbf;" horiz-adv-x="790" d="M14 -166q0 55 21.5 106t61 94.5t77.5 75t90 66.5q51 36 76 64t40 73.5t15 114.5v2l2 141q0 31 31 31h109q30 0 30 -31l2 -141v-2q0 -73 -18 -133.5t-52.5 -106t-65 -74t-73.5 -59.5q-41 -32 -63 -51t-48 -48t-37 -59t-11 -65q0 -81 55.5 -132.5t153.5 -51.5 q71 0 125.5 22t117.5 76q28 22 45 -6l52 -78q18 -21 -7 -43q-79 -67 -154.5 -99t-182.5 -32q-73 0 -138.5 17.5t-124.5 55t-94 108t-35 165.5zM358 883q0 58 34 86t89 28t89 -28t34 -86q0 -55 -35 -85t-88 -30t-88 30t-35 85z" />
<glyph unicode="&#xc0;" horiz-adv-x="1310" d="M37 35l508 1415q9 25 35 25h151q26 0 35 -25l508 -1415q6 -15 -1 -25t-24 -10h-141q-26 0 -35 25l-112 335h-611l-112 -335q-9 -25 -35 -25h-142q-17 0 -23.5 10t-0.5 25zM371.5 1810.5q-3.5 12.5 3.5 24.5l63 109q6 12 19 14.5t24 -6.5l273 -199q7 -6 9 -17t-3 -18 l-31 -53q-13 -19 -35 -10l-307 137q-12 6 -15.5 18.5zM408 532h495l-248 738z" />
<glyph unicode="&#xc1;" horiz-adv-x="1310" d="M37 35l508 1415q9 25 35 25h151q26 0 35 -25l508 -1415q6 -15 -1 -25t-24 -10h-141q-26 0 -35 25l-112 335h-611l-112 -335q-9 -25 -35 -25h-142q-17 0 -23.5 10t-0.5 25zM408 532h495l-248 738zM549.5 1737.5q1.5 11.5 9.5 17.5l270 197q12 9 25 7.5t20 -13.5l64 -111 q16 -26 -14 -43l-306 -137q-22 -10 -34 10l-31 55q-5 6 -3.5 17.5z" />
<glyph unicode="&#xc2;" horiz-adv-x="1310" d="M37 35l508 1415q9 25 35 25h151q26 0 35 -25l508 -1415q6 -15 -1 -25t-24 -10h-141q-26 0 -35 25l-112 335h-611l-112 -335q-9 -25 -35 -25h-142q-17 0 -23.5 10t-0.5 25zM355.5 1737.5q2.5 11.5 9.5 17.5l270 197q6 6 12 6q2 2 8 2q7 0 9 -2q6 0 12 -6l270 -197 q8 -6 9.5 -17.5t-3.5 -17.5l-30 -55q-12 -20 -35 -10l-232 104l-231 -104q-23 -10 -35 10l-31 55q-5 6 -2.5 17.5zM408 532h495l-248 738z" />
<glyph unicode="&#xc3;" horiz-adv-x="1310" d="M37 35l508 1415q9 25 35 25h151q26 0 35 -25l508 -1415q6 -15 -1 -25t-24 -10h-141q-26 0 -35 25l-112 335h-611l-112 -335q-9 -25 -35 -25h-142q-17 0 -23.5 10t-0.5 25zM336 1690q-17 23 0 43q105 121 192 133q47 8 98 -10t92 -40t60 -22q38 0 68 14.5t80 57.5 q25 22 43 -2l16 -25q13 -23 0 -41q-89 -127 -186 -141q-42 -7 -93.5 12.5t-95.5 42.5t-65 23q-40 0 -71 -14.5t-79 -57.5q-25 -25 -45 4zM408 532h495l-248 738z" />
<glyph unicode="&#xc4;" horiz-adv-x="1310" d="M37 35l508 1415q9 25 35 25h151q26 0 35 -25l508 -1415q6 -15 -1 -25t-24 -10h-141q-26 0 -35 25l-112 335h-611l-112 -335q-9 -25 -35 -25h-142q-17 0 -23.5 10t-0.5 25zM354 1761q0 54 33 83.5t84 29.5q53 0 86 -29.5t33 -83.5q0 -108 -119 -108q-117 0 -117 108z M408 532h495l-248 738zM721 1761q0 54 33.5 83.5t85.5 29.5q53 0 85.5 -29.5t32.5 -83.5q0 -108 -118 -108q-119 0 -119 108z" />
<glyph unicode="&#xc5;" horiz-adv-x="1310" d="M37 35l508 1415q9 25 35 25h151q26 0 35 -25l508 -1415q6 -15 -1 -25t-24 -10h-141q-26 0 -35 25l-112 335h-611l-112 -335q-9 -25 -35 -25h-142q-17 0 -23.5 10t-0.5 25zM408 532h495l-248 738zM420 1769q0 107 66 169.5t169 62.5q106 0 172 -62.5t66 -169.5 q0 -116 -64.5 -173.5t-173.5 -57.5q-107 0 -171 58t-64 173zM518 1769q0 -75 37.5 -109t99.5 -34q138 0 138 143q0 71 -38 107.5t-100 36.5q-60 0 -98.5 -37t-38.5 -107z" />
<glyph unicode="&#xc6;" horiz-adv-x="1847" d="M36 11q-6 11 3 26l780 1417q12 21 35 21h832q30 0 30 -31v-111q0 -30 -30 -30h-668l51 -457h545q31 0 31 -31v-110q0 -31 -31 -31h-527l56 -502h565q31 0 31 -31v-110q0 -31 -31 -31h-725q-28 0 -31 31l-34 329h-486l-184 -337q-12 -23 -37 -23h-152q-17 0 -23 11z M524 532h375l-59 584z" />
<glyph unicode="&#xc7;" horiz-adv-x="1204" d="M100 737q0 378 162 568t465 190q239 0 385 -100q9 -6 11 -17t-3 -20l-59 -105q-7 -14 -22.5 -16t-30.5 8q-136 82 -283 82q-203 0 -315.5 -154t-112.5 -436t112.5 -436t315.5 -154q164 0 334 117q37 26 55 -4l57 -92q6 -9 5.5 -20t-9.5 -17q-82 -62 -195 -105t-231 -46 l-30 -58q151 -18 151 -162q0 -71 -32.5 -118t-77.5 -64.5t-99 -17.5q-58 0 -94 12q-22 7 -22 37l2 49q0 27 34 27h50q92 0 92 77q0 74 -119 74h-14q-15 0 -22 9t-1 22l47 121q-245 36 -375.5 223.5t-130.5 525.5z" />
<glyph unicode="&#xc8;" horiz-adv-x="1067" d="M172 31v1413q0 31 31 31h702q31 0 31 -31v-111q0 -30 -31 -30h-543v-457h472q30 0 30 -31v-110q0 -31 -30 -31h-472v-502h566q30 0 30 -31v-110q0 -31 -30 -31h-725q-31 0 -31 31zM276.5 1810.5q-3.5 12.5 2.5 24.5l63 109q8 12 20.5 14.5t24.5 -6.5l270 -199 q9 -6 10.5 -17t-3.5 -18l-31 -53q-11 -21 -33 -10l-307 137q-13 6 -16.5 18.5z" />
<glyph unicode="&#xc9;" horiz-adv-x="1067" d="M172 31v1413q0 31 31 31h702q31 0 31 -31v-111q0 -30 -31 -30h-543v-457h472q30 0 30 -31v-110q0 -31 -30 -31h-472v-502h566q30 0 30 -31v-110q0 -31 -30 -31h-725q-31 0 -31 31zM443 1737.5q2 11.5 10 17.5l270 197q12 9 25 7.5t20 -13.5l63 -111q16 -26 -14 -43 l-305 -137q-23 -10 -35 10l-31 55q-5 6 -3 17.5z" />
<glyph unicode="&#xca;" horiz-adv-x="1067" d="M172 31v1413q0 31 31 31h702q31 0 31 -31v-111q0 -30 -31 -30h-543v-457h472q30 0 30 -31v-110q0 -31 -30 -31h-472v-502h566q30 0 30 -31v-110q0 -31 -30 -31h-725q-31 0 -31 31zM250.5 1737.5q1.5 11.5 9.5 17.5l270 197q6 6 13 6q2 2 8 2t8 -2q6 0 12 -6l271 -197 q7 -6 9 -17.5t-3 -17.5l-31 -55q-12 -20 -35 -10l-231 104l-232 -104q-22 -10 -34 10l-31 55q-5 6 -3.5 17.5z" />
<glyph unicode="&#xcb;" horiz-adv-x="1067" d="M172 31v1413q0 31 31 31h702q31 0 31 -31v-111q0 -30 -31 -30h-543v-457h472q30 0 30 -31v-110q0 -31 -30 -31h-472v-502h566q30 0 30 -31v-110q0 -31 -30 -31h-725q-31 0 -31 31zM254 1761q0 54 33.5 83.5t85.5 29.5q53 0 86 -29.5t33 -83.5q0 -108 -119 -108t-119 108z M623 1761q0 54 32.5 83.5t83.5 29.5q53 0 86 -29.5t33 -83.5q0 -108 -119 -108q-116 0 -116 108z" />
<glyph unicode="&#xcc;" horiz-adv-x="532" d="M-17.5 1810.5q-3.5 12.5 3.5 24.5l63 109q6 12 19 14.5t24 -6.5l273 -199q7 -6 9 -17t-3 -18l-31 -53q-13 -19 -35 -10l-307 137q-12 6 -15.5 18.5zM172 31v1413q0 31 31 31h129q30 0 30 -31v-1413q0 -31 -30 -31h-129q-31 0 -31 31z" />
<glyph unicode="&#xcd;" horiz-adv-x="532" d="M162.5 1737.5q1.5 11.5 9.5 17.5l270 197q12 9 25 7.5t20 -13.5l64 -111q16 -26 -14 -43l-306 -137q-22 -10 -34 10l-31 55q-5 6 -3.5 17.5zM172 31v1413q0 31 31 31h129q30 0 30 -31v-1413q0 -31 -30 -31h-129q-31 0 -31 31z" />
<glyph unicode="&#xce;" horiz-adv-x="532" d="M-32.5 1737.5q1.5 11.5 9.5 17.5l271 197q6 6 12 6q2 2 8 2t8 -2q7 0 13 -6l270 -197q7 -6 9 -17.5t-3 -17.5l-30 -55q-12 -20 -35 -10l-232 104l-231 -104q-23 -10 -35 10l-31 55q-5 6 -3.5 17.5zM172 31v1413q0 31 31 31h129q30 0 30 -31v-1413q0 -31 -30 -31h-129 q-31 0 -31 31z" />
<glyph unicode="&#xcf;" horiz-adv-x="532" d="M-35 1761q0 54 33 83.5t84 29.5q53 0 86 -29.5t33 -83.5q0 -108 -119 -108q-117 0 -117 108zM172 31v1413q0 31 31 31h129q30 0 30 -31v-1413q0 -31 -30 -31h-129q-31 0 -31 31zM332 1761q0 54 33 83.5t86 29.5q52 0 85 -29.5t33 -83.5q0 -108 -118 -108q-119 0 -119 108 z" />
<glyph unicode="&#xd0;" horiz-adv-x="1402" d="M72 702v107q0 31 30 31h103v604q0 28 31 31q190 20 342 20q170 0 302 -44t227.5 -135t145.5 -237t50 -342q0 -365 -191.5 -561t-533.5 -196q-157 0 -342 20q-31 3 -31 31v641h-103q-30 0 -30 30zM395 154q86 -7 183 -7q252 0 390 144.5t138 445.5q0 302 -138 446 t-390 144q-36 0 -183 -6v-481h260q31 0 31 -31v-107q0 -30 -31 -30h-260v-518z" />
<glyph unicode="&#xd1;" horiz-adv-x="1413" d="M172 31v1413q0 31 31 31h94q24 0 37 -19l729 -1081l-12 1069q0 31 30 31h129q31 0 31 -31v-1413q0 -31 -31 -31h-92q-25 0 -37 18l-731 1084l12 -1071q0 -31 -30 -31h-129q-31 0 -31 31zM377 1690q-17 23 0 43q109 121 192 133q47 8 98 -10t92 -40t60 -22q38 0 68 14.5 t80 57.5q27 24 43 -2l18 -25q13 -23 0 -41q-93 -127 -188 -141q-42 -7 -93.5 12.5t-95.5 42.5t-65 23q-40 0 -71 -14.5t-77 -57.5q-25 -25 -45 4z" />
<glyph unicode="&#xd2;" horiz-adv-x="1527" d="M100 737q0 378 172 568t492 190q319 0 490 -190t171 -568t-170.5 -567.5t-490.5 -189.5t-492 189.5t-172 567.5zM297 737q0 -289 122.5 -439.5t344.5 -150.5q221 0 343 150.5t122 439.5t-122 439.5t-343 150.5q-222 0 -344.5 -150.5t-122.5 -439.5zM492.5 1810.5 q-4.5 12.5 3.5 24.5l63 109q8 12 20.5 14.5t24.5 -6.5l270 -199q9 -6 10.5 -17t-3.5 -18l-31 -53q-10 -21 -35 -10l-305 137q-13 6 -17.5 18.5z" />
<glyph unicode="&#xd3;" horiz-adv-x="1527" d="M100 737q0 378 172 568t492 190q319 0 490 -190t171 -568t-170.5 -567.5t-490.5 -189.5t-492 189.5t-172 567.5zM297 737q0 -289 122.5 -439.5t344.5 -150.5q221 0 343 150.5t122 439.5t-122 439.5t-343 150.5q-222 0 -344.5 -150.5t-122.5 -439.5zM642 1737.5 q2 11.5 9 17.5l273 197q12 9 25 7.5t20 -13.5l63 -111q14 -28 -14 -43l-307 -137q-20 -9 -35 10l-31 55q-5 6 -3 17.5z" />
<glyph unicode="&#xd4;" horiz-adv-x="1527" d="M100 737q0 378 172 568t492 190q319 0 490 -190t171 -568t-170.5 -567.5t-490.5 -189.5t-492 189.5t-172 567.5zM297 737q0 -289 122.5 -439.5t344.5 -150.5q221 0 343 150.5t122 439.5t-122 439.5t-343 150.5q-222 0 -344.5 -150.5t-122.5 -439.5zM462 1737.5 q2 11.5 9 17.5l272 197q3 6 11 6q2 2 8 2t8 -2q6 0 12 -6l271 -197q8 -6 9.5 -17.5t-3.5 -17.5l-31 -55q-5 -8 -14.5 -11t-18.5 1l-233 104l-232 -104q-19 -8 -34 10l-31 55q-5 6 -3 17.5z" />
<glyph unicode="&#xd5;" horiz-adv-x="1527" d="M100 737q0 378 172 568t492 190q319 0 490 -190t171 -568t-170.5 -567.5t-490.5 -189.5t-492 189.5t-172 567.5zM297 737q0 -289 122.5 -439.5t344.5 -150.5q221 0 343 150.5t122 439.5t-122 439.5t-343 150.5q-222 0 -344.5 -150.5t-122.5 -439.5zM440 1690q-17 23 0 43 q105 120 193 133q47 8 98 -10t92 -40t60 -22q37 0 67 14.5t80 57.5q25 22 43 -2l17 -25q14 -25 0 -41q-89 -127 -187 -141q-42 -7 -93.5 12.5t-95.5 42.5t-65 23q-40 0 -70.5 -14.5t-76.5 -57.5q-27 -24 -45 4z" />
<glyph unicode="&#xd6;" horiz-adv-x="1527" d="M100 737q0 378 172 568t492 190q319 0 490 -190t171 -568t-170.5 -567.5t-490.5 -189.5t-492 189.5t-172 567.5zM297 737q0 -289 122.5 -439.5t344.5 -150.5q221 0 343 150.5t122 439.5t-122 439.5t-343 150.5q-222 0 -344.5 -150.5t-122.5 -439.5zM461 1761 q0 54 33 83.5t86 29.5q52 0 85 -29.5t33 -83.5q0 -108 -118 -108q-119 0 -119 108zM827 1761q0 54 33.5 83.5t85.5 29.5q53 0 86 -29.5t33 -83.5q0 -108 -119 -108t-119 108z" />
<glyph unicode="&#xd7;" horiz-adv-x="1112" d="M160 188q-22 22 0 45l276 279l-276 276q-21 25 0 46l73 75q23 23 46 0l278 -278l277 278q22 23 45 0l75 -75q21 -21 0 -46l-278 -276l278 -279q22 -23 0 -45l-75 -73q-23 -23 -45 0l-277 276l-278 -276q-23 -23 -46 0z" />
<glyph unicode="&#xd8;" horiz-adv-x="1499" d="M100 737q0 393 166 575.5t482 182.5q266 0 423 -127l70 88q16 19 37 19h70q20 0 25 -11t-7 -26l-117 -150q150 -189 150 -551q0 -370 -169.5 -563.5t-481.5 -193.5q-256 0 -416 133l-74 -95q-15 -18 -37 -18h-69q-20 0 -25.5 11t6.5 26l121 156q-154 196 -154 544z M297 737q0 -243 80 -387l676 867q-110 110 -305 110q-215 0 -333 -143.5t-118 -446.5zM444 258q114 -111 304 -111q218 0 336 143.5t118 446.5q0 242 -80 389z" />
<glyph unicode="&#xd9;" horiz-adv-x="1347" d="M141 535v909q0 31 31 31h129q31 0 31 -31v-909q0 -184 84 -286t256 -102q175 0 259.5 101.5t84.5 286.5v909q0 31 31 31h129q30 0 30 -31v-909q0 -267 -135.5 -411t-398.5 -144q-262 0 -396.5 144t-134.5 411zM397 1810.5q-4 12.5 2 24.5l64 109q8 12 20.5 14.5 t24.5 -6.5l272 -199q7 -6 9 -17t-3 -18l-32 -53q-11 -21 -33 -10l-307 137q-13 6 -17 18.5z" />
<glyph unicode="&#xda;" horiz-adv-x="1347" d="M141 535v909q0 31 31 31h129q31 0 31 -31v-909q0 -184 84 -286t256 -102q175 0 259.5 101.5t84.5 286.5v909q0 31 31 31h129q30 0 30 -31v-909q0 -267 -135.5 -411t-398.5 -144q-262 0 -396.5 144t-134.5 411zM558 1737.5q2 11.5 9 17.5l273 197q12 9 25 7.5t20 -13.5 l63 -111q14 -28 -14 -43l-307 -137q-9 -4 -18.5 -1t-14.5 11l-33 55q-5 6 -3 17.5z" />
<glyph unicode="&#xdb;" horiz-adv-x="1347" d="M141 535v909q0 31 31 31h129q31 0 31 -31v-909q0 -184 84 -286t256 -102q175 0 259.5 101.5t84.5 286.5v909q0 31 31 31h129q30 0 30 -31v-909q0 -267 -135.5 -411t-398.5 -144q-262 0 -396.5 144t-134.5 411zM372 1737.5q2 11.5 9 17.5l272 197q6 6 11 6q4 2 10 2 q4 0 8 -2q7 0 10 -6l273 -197q7 -6 9 -17.5t-3 -17.5l-31 -55q-15 -19 -35 -10l-231 104l-234 -104q-20 -10 -32 10l-33 55q-5 6 -3 17.5z" />
<glyph unicode="&#xdc;" horiz-adv-x="1347" d="M141 535v909q0 31 31 31h129q31 0 31 -31v-909q0 -184 84 -286t256 -102q175 0 259.5 101.5t84.5 286.5v909q0 31 31 31h129q30 0 30 -31v-909q0 -267 -135.5 -411t-398.5 -144q-262 0 -396.5 144t-134.5 411zM371 1761q0 54 32.5 83.5t85.5 29.5q52 0 85.5 -29.5 t33.5 -83.5q0 -108 -119 -108q-118 0 -118 108zM737 1761q0 54 33.5 83.5t85.5 29.5q53 0 86 -29.5t33 -83.5q0 -108 -119 -108t-119 108z" />
<glyph unicode="&#xdd;" horiz-adv-x="1222" d="M37 1464q6 11 26 11h142q27 0 39 -21l366 -635l367 635q12 21 39 21h143q20 0 26 -11t-3 -26l-475 -799v-608q0 -31 -31 -31h-129q-31 0 -31 31v608l-475 799q-10 15 -4 26zM504.5 1737.5q1.5 11.5 9.5 17.5l270 197q12 9 25 7.5t20 -13.5l64 -111q16 -26 -14 -43 l-306 -137q-22 -10 -34 10l-31 55q-5 6 -3.5 17.5z" />
<glyph unicode="&#xde;" horiz-adv-x="1120" d="M172 31v1413q0 31 31 31h127q30 0 30 -31v-254q93 8 197 8q248 0 372 -118t124 -324q0 -97 -31 -175t-82 -128.5t-119.5 -84.5t-139.5 -48.5t-146 -14.5q-136 0 -175 2v-276q0 -31 -30 -31h-127q-31 0 -31 31zM360 477q74 -4 177 -4q158 0 237.5 80t79.5 203 q0 127 -74 199.5t-221 72.5q-97 0 -199 -6v-545z" />
<glyph unicode="&#xdf;" horiz-adv-x="1161" d="M125 31v1169q0 155 81 245.5t226 90.5q113 0 193.5 -23.5t124.5 -66.5t64 -95t20 -116q0 -48 -18.5 -100t-35.5 -81.5t-47 -72.5q-7 -10 -26 -37.5t-25 -37.5t-16 -29t-13.5 -34.5t-3.5 -33.5q0 -41 42.5 -76t131.5 -84q107 -59 149 -94q111 -94 111 -244 q0 -155 -95.5 -243t-248.5 -88q-79 0 -146.5 32.5t-148.5 100.5q-22 17 -6 43l51 77q18 29 46 7q65 -56 108.5 -78.5t91.5 -22.5q162 0 162 168q0 70 -42.5 116.5t-119.5 88.5q-121 68 -161 101q-96 81 -97 190q0 18 5.5 39.5t12 39t20.5 44t22 40t26 43t23 38.5 q28 47 37.5 65t17 44t8.5 58q1 82 -51.5 122t-122.5 40q-168 0 -168 -202v-1143q0 -31 -31 -31h-120q-31 0 -31 31z" />
<glyph unicode="&#xe0;" d="M78 297q0 157 112.5 239t323.5 82q69 0 229 -4v76q0 95 -60.5 141t-188.5 46q-122 0 -244 -60q-35 -14 -51 14l-37 76q-15 31 14 47q143 84 342 84q408 0 408 -319v-467q0 -115 20 -221q3 -14 -6 -22.5t-25 -8.5h-47q-45 0 -73.5 35.5t-36.5 97.5l-2 21 q-65 -65 -158 -119.5t-190 -54.5q-327 0 -330 317zM248.5 1351.5q-4.5 12.5 3.5 24.5l63 111q7 12 20 13.5t25 -7.5l271 -197q7 -6 9 -17.5t-3 -18.5l-31 -54q-10 -21 -35 -10l-305 137q-13 6 -17.5 18.5zM264 297q0 -158 176 -158q139 0 303 164v164q-168 4 -229 4 q-129 0 -189.5 -47.5t-60.5 -126.5z" />
<glyph unicode="&#xe1;" d="M78 297q0 157 112.5 239t323.5 82q69 0 229 -4v76q0 95 -60.5 141t-188.5 46q-122 0 -244 -60q-35 -14 -51 14l-37 76q-15 31 14 47q143 84 342 84q408 0 408 -319v-467q0 -115 20 -221q3 -14 -6 -22.5t-25 -8.5h-47q-45 0 -73.5 35.5t-36.5 97.5l-2 21 q-65 -65 -158 -119.5t-190 -54.5q-327 0 -330 317zM264 297q0 -158 176 -158q139 0 303 164v164q-168 4 -229 4q-129 0 -189.5 -47.5t-60.5 -126.5zM400.5 1278.5q2.5 11.5 9.5 17.5l270 197q12 9 25 7.5t20 -13.5l63 -111q8 -12 3.5 -24.5t-17.5 -18.5l-305 -137 q-25 -11 -35 10l-31 54q-5 7 -2.5 18.5z" />
<glyph unicode="&#xe2;" d="M78 297q0 157 112.5 239t323.5 82q69 0 229 -4v76q0 95 -60.5 141t-188.5 46q-122 0 -244 -60q-35 -14 -51 14l-37 76q-15 31 14 47q143 84 342 84q408 0 408 -319v-467q0 -115 20 -221q3 -14 -6 -22.5t-25 -8.5h-47q-45 0 -73.5 35.5t-36.5 97.5l-2 21 q-65 -65 -158 -119.5t-190 -54.5q-327 0 -330 317zM220 1278.5q2 11.5 9 17.5l271 197q6 6 12 6q2 2 8 2t8 -2q7 0 13 -6l270 -197q8 -6 9.5 -17.5t-3.5 -18.5l-31 -54q-10 -20 -34 -10l-232 104l-231 -104q-25 -11 -35 10l-31 54q-5 7 -3 18.5zM264 297q0 -158 176 -158 q139 0 303 164v164q-168 4 -229 4q-129 0 -189.5 -47.5t-60.5 -126.5z" />
<glyph unicode="&#xe3;" d="M78 297q0 157 112.5 239t323.5 82q69 0 229 -4v76q0 95 -60.5 141t-188.5 46q-122 0 -244 -60q-35 -14 -51 14l-37 76q-15 31 14 47q143 84 342 84q408 0 408 -319v-467q0 -115 20 -221q3 -14 -6 -22.5t-25 -8.5h-47q-45 0 -73.5 35.5t-36.5 97.5l-2 21 q-65 -65 -158 -119.5t-190 -54.5q-327 0 -330 317zM201 1245q-18 25 0 43q109 121 192 133q47 8 98 -9.5t92 -39.5t60 -22q37 0 67 14.5t81 56.5q27 27 43 -2l16 -24q14 -25 0 -41q-93 -129 -186 -142q-42 -7 -93.5 12.5t-95.5 42.5t-65 23q-40 0 -71.5 -14t-76.5 -57 q-28 -22 -45 4zM264 297q0 -158 176 -158q139 0 303 164v164q-168 4 -229 4q-129 0 -189.5 -47.5t-60.5 -126.5z" />
<glyph unicode="&#xe4;" d="M78 297q0 157 112.5 239t323.5 82q69 0 229 -4v76q0 95 -60.5 141t-188.5 46q-122 0 -244 -60q-35 -14 -51 14l-37 76q-15 31 14 47q143 84 342 84q408 0 408 -319v-467q0 -115 20 -221q3 -14 -6 -22.5t-25 -8.5h-47q-45 0 -73.5 35.5t-36.5 97.5l-2 21 q-65 -65 -158 -119.5t-190 -54.5q-327 0 -330 317zM223 1339q0 54 32.5 82.5t84.5 28.5q53 0 86 -28.5t33 -82.5q0 -110 -119 -110q-53 0 -85 26.5t-32 83.5zM264 297q0 -158 176 -158q139 0 303 164v164q-168 4 -229 4q-129 0 -189.5 -47.5t-60.5 -126.5zM590 1339 q0 53 33.5 82t85.5 29q53 0 85.5 -28.5t32.5 -82.5q0 -110 -118 -110q-54 0 -86.5 26.5t-32.5 83.5z" />
<glyph unicode="&#xe5;" d="M78 297q0 157 112.5 239t323.5 82q69 0 229 -4v76q0 95 -60.5 141t-188.5 46q-122 0 -244 -60q-35 -14 -51 14l-37 76q-15 31 14 47q143 84 342 84q408 0 408 -319v-467q0 -115 20 -221q3 -14 -6 -22.5t-25 -8.5h-47q-45 0 -73.5 35.5t-36.5 97.5l-2 21 q-65 -65 -158 -119.5t-190 -54.5q-327 0 -330 317zM264 297q0 -158 176 -158q139 0 303 164v164q-168 4 -229 4q-129 0 -189.5 -47.5t-60.5 -126.5zM301 1319q0 106 66 168.5t170 62.5q106 0 171.5 -62t65.5 -169q0 -116 -64 -174t-173 -58q-107 0 -171.5 58.5t-64.5 173.5z M399 1319q0 -75 38 -109t100 -34q137 0 137 143q0 71 -37.5 107t-99.5 36q-61 0 -99.5 -36.5t-38.5 -106.5z" />
<glyph unicode="&#xe6;" horiz-adv-x="1763" d="M78 297q0 157 112.5 239t323.5 82q69 0 229 -4v91q0 92 -57.5 132t-187.5 40q-136 0 -244 -60q-34 -17 -51 14l-37 76q-6 10 -2 25t16 22q68 39 147.5 61.5t202.5 22.5q251 0 342 -133q124 133 347 133q106 0 190.5 -29t135 -74t83.5 -105t45.5 -115.5t12.5 -112.5v-2 q0 -68 -32.5 -103.5t-107.5 -35.5l-618 -4q9 -174 97 -247.5t249 -70.5q86 3 164.5 36.5t136.5 78.5q21 16 43 -21l45 -73q10 -19 -18 -39q-188 -141 -408 -141q-128 0 -241.5 53t-180.5 168q-16 -21 -36 -43t-60.5 -56t-83.5 -59.5t-103.5 -44t-123.5 -18.5 q-327 0 -330 317zM264 297q0 -158 176 -158q52 0 100.5 15t80 33.5t64.5 49.5t46.5 46.5t32.5 40.5q-19 80 -21 143q-164 4 -229 4q-129 0 -189.5 -47.5t-60.5 -126.5zM932 602h567q-11 141 -76.5 208t-210.5 67q-128 0 -196.5 -65.5t-83.5 -209.5z" />
<glyph unicode="&#xe7;" horiz-adv-x="950" d="M78 510q0 118 26.5 211t69.5 151.5t102 96.5t120 53.5t128 15.5q105 0 177.5 -24.5t152.5 -73.5q23 -16 6 -43l-39 -76q-17 -34 -57 -12q-112 68 -223 68q-136 0 -206.5 -94t-70.5 -273q0 -178 71 -274.5t206 -96.5q63 0 132 29.5t115 67.5q33 26 52 -3l49 -79 q13 -18 -15 -41q-133 -123 -319 -133l-31 -58q152 -18 152 -162q0 -71 -32.5 -118t-77.5 -64.5t-99 -17.5q-58 0 -94 12q-23 8 -23 37l2 49q0 27 35 27h49q90 0 90 77q0 74 -116 74h-15q-15 0 -21.5 9t-0.5 22l47 123q-56 12 -104 36t-93 66t-76.5 98.5t-50 138t-18.5 181.5 z" />
<glyph unicode="&#xe8;" horiz-adv-x="1099" d="M78 508q0 260 127.5 395t349.5 135q106 0 190 -30.5t134.5 -77.5t83.5 -110t45 -121t12 -117v-2q0 -69 -31.5 -104.5t-107.5 -35.5l-615 -4q6 -83 32.5 -142t72 -93t104.5 -49t135 -13q86 3 164.5 36.5t136.5 78.5q21 16 43 -21l43 -73q11 -21 -18 -39 q-182 -141 -406 -141q-71 0 -138 15.5t-133 54.5t-115 97.5t-79 151.5t-30 209zM266 582h572q-9 153 -74.5 224t-214.5 71q-132 0 -201.5 -70t-81.5 -225zM285.5 1351.5q-4.5 12.5 3.5 24.5l63 111q7 12 20 13.5t25 -7.5l271 -197q8 -6 9.5 -17.5t-3.5 -18.5l-31 -54 q-10 -21 -35 -10l-305 137q-13 6 -17.5 18.5z" />
<glyph unicode="&#xe9;" horiz-adv-x="1099" d="M78 508q0 260 127.5 395t349.5 135q106 0 190 -30.5t134.5 -77.5t83.5 -110t45 -121t12 -117v-2q0 -69 -31.5 -104.5t-107.5 -35.5l-615 -4q6 -83 32.5 -142t72 -93t104.5 -49t135 -13q86 3 164.5 36.5t136.5 78.5q21 16 43 -21l43 -73q11 -21 -18 -39 q-67 -52 -175.5 -96.5t-230.5 -44.5q-71 0 -138 15.5t-133 54.5t-115 97.5t-79 151.5t-30 209zM266 582h572q-9 153 -74.5 224t-214.5 71q-132 0 -201.5 -70t-81.5 -225zM442.5 1278.5q1.5 11.5 10.5 17.5l270 197q12 9 25 7.5t20 -13.5l63 -111q8 -12 3.5 -24.5 t-17.5 -18.5l-305 -137q-25 -11 -35 10l-31 54q-5 7 -3.5 18.5z" />
<glyph unicode="&#xea;" horiz-adv-x="1099" d="M78 508q0 260 127.5 395t349.5 135q106 0 190 -30.5t134.5 -77.5t83.5 -110t45 -121t12 -117v-2q0 -69 -31.5 -104.5t-107.5 -35.5l-615 -4q6 -83 32.5 -142t72 -93t104.5 -49t135 -13q86 3 164.5 36.5t136.5 78.5q21 16 43 -21l43 -73q11 -21 -18 -39 q-182 -141 -406 -141q-71 0 -138 15.5t-133 54.5t-115 97.5t-79 151.5t-30 209zM256.5 1278.5q1.5 11.5 9.5 17.5l271 197q6 6 12 6q2 2 8 2t8 -2q7 0 13 -6l270 -197q7 -6 9 -17.5t-3 -18.5l-31 -54q-10 -21 -35 -10l-231 104l-231 -104q-25 -11 -35 10l-31 54 q-5 7 -3.5 18.5zM266 582h572q-9 153 -74.5 224t-214.5 71q-132 0 -201.5 -70t-81.5 -225z" />
<glyph unicode="&#xeb;" horiz-adv-x="1099" d="M78 508q0 260 127.5 395t349.5 135q106 0 190 -30.5t134.5 -77.5t83.5 -110t45 -121t12 -117v-2q0 -69 -31.5 -104.5t-107.5 -35.5l-615 -4q6 -83 32.5 -142t72 -93t104.5 -49t135 -13q86 3 164.5 36.5t136.5 78.5q21 16 43 -21l43 -73q11 -21 -18 -39 q-182 -141 -406 -141q-71 0 -138 15.5t-133 54.5t-115 97.5t-79 151.5t-30 209zM258 1339q0 54 32.5 82.5t84.5 28.5q53 0 86 -28.5t33 -82.5q0 -110 -119 -110q-53 0 -85 26.5t-32 83.5zM266 582h572q-9 153 -74.5 224t-214.5 71q-132 0 -201.5 -70t-81.5 -225zM625 1339 q0 54 32.5 82.5t85.5 28.5q52 0 85.5 -29t33.5 -82q0 -57 -32.5 -83.5t-86.5 -26.5q-118 0 -118 110z" />
<glyph unicode="&#xec;" horiz-adv-x="493" d="M-13.5 1351.5q-3.5 12.5 3.5 24.5l63 111q6 12 19.5 13.5t25.5 -7.5l271 -197q7 -6 9 -17.5t-3 -18.5l-31 -54q-10 -21 -35 -10l-307 137q-12 6 -15.5 18.5zM156 31v956q0 31 30 31h121q31 0 31 -31v-956q0 -31 -31 -31h-121q-30 0 -30 31z" />
<glyph unicode="&#xed;" horiz-adv-x="493" d="M113.5 1278.5q1.5 11.5 9.5 17.5l270 197q12 9 25 7.5t20 -13.5l64 -111q6 -12 2 -24.5t-17 -18.5l-307 -137q-22 -11 -33 10l-30 54q-5 7 -3.5 18.5zM156 31v956q0 31 30 31h121q31 0 31 -31v-956q0 -31 -31 -31h-121q-30 0 -30 31z" />
<glyph unicode="&#xee;" horiz-adv-x="493" d="M-54 1278.5q2 11.5 9 17.5l270 197q6 6 13 6q2 2 8 2t8 -2q6 0 12 -6l271 -197q8 -6 9.5 -17.5t-3.5 -18.5l-31 -54q-10 -21 -35 -10l-231 104l-232 -104q-24 -10 -34 10l-31 54q-5 7 -3 18.5zM156 31v956q0 31 30 31h121q31 0 31 -31v-956q0 -31 -31 -31h-121 q-30 0 -30 31z" />
<glyph unicode="&#xef;" horiz-adv-x="493" d="M-57 1339q0 53 33 82t85 29q53 0 86 -28.5t33 -82.5q0 -110 -119 -110q-53 0 -85.5 26.5t-32.5 83.5zM156 31v956q0 31 30 31h121q31 0 31 -31v-956q0 -31 -31 -31h-121q-30 0 -30 31zM311 1339q0 54 32.5 82.5t84.5 28.5q53 0 86 -28.5t33 -82.5q0 -110 -119 -110 q-53 0 -85 26.5t-32 83.5z" />
<glyph unicode="&#xf0;" horiz-adv-x="1087" d="M78 508q0 530 467 530q116 0 221 -75q-42 131 -123 241l-215 -57q-30 -9 -39 22l-12 45q-7 27 22 37l160 43q-67 61 -158 115q-29 16 -14 41l35 61q14 28 39 17q172 -70 287 -182l165 45q29 9 39 -23l11 -47q9 -27 -21 -37l-115 -31q183 -250 183 -745 q0 -261 -123.5 -394.5t-341.5 -133.5q-219 0 -343 133.5t-124 394.5zM264 508q0 -189 65 -279t216 -90q150 0 214 90t64 279q0 178 -65.5 273.5t-212.5 95.5q-152 0 -216.5 -89t-64.5 -280z" />
<glyph unicode="&#xf1;" horiz-adv-x="1134" d="M129 31v962q0 31 31 31h45q50 0 78 -33t28 -94v-16q154 163 348 163q82 0 142.5 -19t108 -63t72 -123t24.5 -192v-616q0 -31 -31 -31h-121q-31 0 -31 31v532q0 67 -4.5 113t-18.5 88t-38.5 66.5t-65 38.5t-98.5 14q-151 0 -287 -160v-692q0 -31 -30 -31h-121 q-31 0 -31 31zM256 1245q-18 25 0 43q109 121 193 133q37 6 77.5 -3.5t69 -25t57.5 -29t45 -13.5q38 0 68.5 14.5t79.5 56.5q27 27 43 -2l18 -24q13 -23 0 -41q-92 -128 -188 -142q-42 -7 -93.5 12.5t-95.5 42.5t-65 23q-40 0 -71.5 -14t-76.5 -57q-27 -23 -45 4z" />
<glyph unicode="&#xf2;" horiz-adv-x="1161" d="M78 508q0 141 37 244.5t105.5 165t158.5 91t203 29.5q230 0 365.5 -131t135.5 -399q0 -250 -138.5 -389t-362.5 -139q-226 0 -365 139t-139 389zM264 508q0 -369 318 -369q315 0 315 369t-315 369q-318 0 -318 -369zM313 1351.5q-4 12.5 2 24.5l64 111q7 12 20 13.5 t25 -7.5l272 -197q7 -6 9 -17.5t-3 -18.5l-32 -54q-11 -21 -33 -10l-307 137q-13 6 -17 18.5z" />
<glyph unicode="&#xf3;" horiz-adv-x="1161" d="M78 508q0 141 37 244.5t105.5 165t158.5 91t203 29.5q230 0 365.5 -131t135.5 -399q0 -250 -138.5 -389t-362.5 -139q-226 0 -365 139t-139 389zM264 508q0 -369 318 -369q315 0 315 369t-315 369q-318 0 -318 -369zM466 1278.5q2 11.5 9 17.5l270 197q12 9 25.5 7.5 t20.5 -13.5l63 -111q7 -12 3.5 -24.5t-15.5 -18.5l-307 -137q-25 -11 -35 10l-31 54q-5 7 -3 18.5z" />
<glyph unicode="&#xf4;" horiz-adv-x="1161" d="M78 508q0 141 37 244.5t105.5 165t158.5 91t203 29.5q230 0 365.5 -131t135.5 -399q0 -250 -138.5 -389t-362.5 -139q-226 0 -365 139t-139 389zM264 508q0 -369 318 -369q315 0 315 369t-315 369q-318 0 -318 -369zM281.5 1278.5q1.5 11.5 9.5 17.5l270 197q6 6 12 6 q2 2 9 2q6 0 8 -2q6 0 12 -6l270 -197q7 -6 9.5 -17.5t-2.5 -18.5l-31 -54q-10 -21 -35 -10l-231 104l-232 -104q-25 -11 -35 10l-30 54q-5 7 -3.5 18.5z" />
<glyph unicode="&#xf5;" horiz-adv-x="1161" d="M78 508q0 141 37 244.5t105.5 165t158.5 91t203 29.5q230 0 365.5 -131t135.5 -399q0 -250 -138.5 -389t-362.5 -139q-226 0 -365 139t-139 389zM258 1245q-18 25 0 43q105 120 193 133q37 6 77.5 -3.5t69 -25t57.5 -29t45 -13.5q37 0 67 14.5t81 56.5q25 25 43 -2 l16 -24q13 -23 0 -41q-93 -129 -186 -142q-42 -7 -93.5 12.5t-95.5 42.5t-65 23q-40 0 -71 -14t-79 -57q-27 -23 -45 4zM264 508q0 -369 318 -369q315 0 315 369t-315 369q-318 0 -318 -369z" />
<glyph unicode="&#xf6;" horiz-adv-x="1161" d="M78 508q0 141 37 244.5t105.5 165t158.5 91t203 29.5q230 0 365.5 -131t135.5 -399q0 -250 -138.5 -389t-362.5 -139q-226 0 -365 139t-139 389zM264 508q0 -369 318 -369q315 0 315 369t-315 369q-318 0 -318 -369zM279 1339q0 54 32 82.5t84 28.5q53 0 86 -28.5 t33 -82.5q0 -110 -119 -110q-116 0 -116 110zM645 1339q0 53 33.5 82t85.5 29q53 0 86 -28.5t33 -82.5q0 -110 -119 -110q-54 0 -86.5 26.5t-32.5 83.5z" />
<glyph unicode="&#xf7;" horiz-adv-x="1112" d="M137 471v90q0 31 31 31h778q31 0 31 -31v-90q0 -31 -31 -31h-778q-31 0 -31 31zM434 137q0 54 35 83.5t88 29.5t88 -29.5t35 -83.5q0 -59 -34 -86.5t-89 -27.5t-89 27.5t-34 86.5zM434 881q0 55 34.5 84.5t88.5 29.5t88.5 -29.5t34.5 -84.5q0 -58 -34 -86.5t-89 -28.5 t-89 28.5t-34 86.5z" />
<glyph unicode="&#xf8;" horiz-adv-x="1161" d="M78 508q0 141 37 244.5t105.5 165t158.5 91t203 29.5q185 0 309 -84l37 45q16 19 37 19h57q20 0 25 -11t-7 -26l-75 -92q118 -137 118 -381q0 -250 -138.5 -389t-362.5 -139q-179 0 -306 88l-40 -50q-15 -18 -37 -18h-58q-20 0 -25 11t7 26l80 96q-125 141 -125 375z M264 508q0 -151 53 -240l463 553q-76 56 -198 56q-318 0 -318 -369zM383 195q73 -56 199 -56q315 0 315 369q0 152 -51 240z" />
<glyph unicode="&#xf9;" horiz-adv-x="1130" d="M125 377v610q0 31 31 31h120q31 0 31 -31v-506q0 -193 49 -266.5t191 -73.5q132 0 252 138v708q0 31 30 31h121q31 0 31 -31v-735q0 -115 20 -221q3 -15 -5.5 -23t-24.5 -8h-47q-45 0 -74 35.5t-37 97.5v8q-161 -161 -352 -161q-336 0 -336 397zM254.5 1351.5 q-3.5 12.5 3.5 24.5l64 111q6 12 19.5 13.5t23.5 -7.5l272 -197q7 -6 9 -17.5t-3 -18.5l-31 -54q-13 -19 -34 -10l-308 137q-12 6 -15.5 18.5z" />
<glyph unicode="&#xfa;" horiz-adv-x="1130" d="M125 377v610q0 31 31 31h120q31 0 31 -31v-506q0 -193 49 -266.5t191 -73.5q132 0 252 138v708q0 31 30 31h121q31 0 31 -31v-735q0 -115 20 -221q3 -15 -5.5 -23t-24.5 -8h-47q-45 0 -74 35.5t-37 97.5v8q-161 -161 -352 -161q-336 0 -336 397zM427 1278.5 q2 11.5 9 17.5l273 197q12 9 25 7.5t20 -13.5l63 -111q6 -12 2.5 -24.5t-16.5 -18.5l-307 -137q-22 -11 -33 10l-33 54q-5 7 -3 18.5z" />
<glyph unicode="&#xfb;" horiz-adv-x="1130" d="M125 377v610q0 31 31 31h120q31 0 31 -31v-506q0 -193 49 -266.5t191 -73.5q132 0 252 138v708q0 31 30 31h121q31 0 31 -31v-735q0 -115 20 -221q3 -15 -5.5 -23t-24.5 -8h-47q-45 0 -74 35.5t-37 97.5v8q-161 -161 -352 -161q-336 0 -336 397zM241 1278.5 q2 11.5 9 17.5l272 197q3 6 10 6q2 2 9 2q6 0 8 -2q6 0 12 -6l270 -197q9 -6 10.5 -17.5t-3.5 -18.5l-31 -54q-11 -21 -33 -10l-233 104l-232 -104q-22 -9 -35 10l-30 54q-5 7 -3 18.5z" />
<glyph unicode="&#xfc;" horiz-adv-x="1130" d="M125 377v610q0 31 31 31h120q31 0 31 -31v-506q0 -193 49 -266.5t191 -73.5q132 0 252 138v708q0 31 30 31h121q31 0 31 -31v-735q0 -115 20 -221q3 -15 -5.5 -23t-24.5 -8h-47q-45 0 -74 35.5t-37 97.5v8q-161 -161 -352 -161q-336 0 -336 397zM240 1339q0 54 32 82.5 t84 28.5q53 0 86 -28.5t33 -82.5q0 -110 -119 -110q-116 0 -116 110zM606 1339q0 54 33 82.5t86 28.5q52 0 85.5 -29t33.5 -82q0 -57 -32.5 -83.5t-86.5 -26.5q-119 0 -119 110z" />
<glyph unicode="&#xfd;" horiz-adv-x="1044" d="M49 983q-5 15 1.5 25t23.5 10h135q26 0 35 -25l272 -803l283 799q10 29 32 29h134q18 0 26 -9t2 -24l-542 -1462q-12 -35 -45 -35h-113q-34 0 -25 35l181 477h-25q-26 0 -35 25zM400.5 1278.5q2.5 11.5 9.5 17.5l270 197q12 9 25 7.5t20 -13.5l63 -111q8 -12 3.5 -24.5 t-17.5 -18.5l-305 -137q-25 -11 -35 10l-31 54q-5 7 -2.5 18.5z" />
<glyph unicode="&#xfe;" horiz-adv-x="1112" d="M129 -481v1986q0 31 31 31h45q50 0 78 -33t28 -94v-528q152 157 340 157q94 0 164.5 -33.5t111.5 -85t66 -125t33 -141t8 -145.5q0 -251 -130.5 -389.5t-360.5 -138.5q-64 0 -232 8v-469q0 -31 -30 -31h-121q-31 0 -31 31zM311 147q160 -8 234 -8q153 0 228 89.5 t75 279.5q0 39 -1 68t-6.5 69.5t-14.5 70t-26 61t-41 51.5t-60.5 33t-82.5 13q-146 0 -305 -159v-568z" />
<glyph unicode="&#xff;" horiz-adv-x="1044" d="M49 983q-5 15 1.5 25t23.5 10h135q26 0 35 -25l272 -803l283 799q10 29 32 29h134q18 0 26 -9t2 -24l-542 -1462q-12 -35 -45 -35h-113q-34 0 -25 35l181 477h-25q-26 0 -35 25zM219 1339q0 54 32.5 82.5t84.5 28.5q53 0 86 -28.5t33 -82.5q0 -110 -119 -110 q-53 0 -85 26.5t-32 83.5zM586 1339q0 53 33.5 82t85.5 29q53 0 85.5 -28.5t32.5 -82.5q0 -110 -118 -110q-54 0 -86.5 26.5t-32.5 83.5z" />
<glyph unicode="&#x152;" horiz-adv-x="2054" d="M100 737q0 758 641 758q305 0 433 -188v137q0 31 30 31h686q31 0 31 -31v-111q0 -30 -31 -30h-542v-457h471q30 0 30 -31v-110q0 -31 -30 -31h-471v-502h565q31 0 31 -31v-110q0 -31 -31 -31h-709q-30 0 -30 31v149q-134 -200 -433 -200q-305 0 -473 194t-168 563z M297 737q0 -302 116.5 -446t327.5 -144q418 0 418 590q0 305 -107 447.5t-311 142.5q-211 0 -327.5 -143.5t-116.5 -446.5z" />
<glyph unicode="&#x153;" horiz-adv-x="1884" d="M78 508q0 279 124.5 404.5t364.5 125.5q126 0 225.5 -46t161.5 -136q123 182 385 182q106 0 190 -30.5t134.5 -77.5t83.5 -110t45 -121t12 -117v-2q0 -69 -31.5 -104.5t-107.5 -35.5l-616 -4q13 -163 101.5 -231.5t244.5 -65.5q86 3 164.5 36.5t136.5 78.5q21 16 43 -21 l43 -73q10 -21 -19 -39q-182 -141 -405 -141q-118 0 -226.5 46.5t-177.5 145.5q-63 -93 -163 -142.5t-224 -49.5q-232 0 -360.5 136.5t-128.5 391.5zM264 508q0 -196 73 -282.5t230 -86.5q295 0 295 369t-295 369q-158 0 -230.5 -85.5t-72.5 -283.5zM1051 582h571 q-11 154 -75.5 224.5t-213.5 70.5q-132 0 -201 -70t-81 -225z" />
<glyph unicode="&#x178;" horiz-adv-x="1222" d="M37 1464q6 11 26 11h142q27 0 39 -21l366 -635l367 635q12 21 39 21h143q20 0 26 -11t-3 -26l-475 -799v-608q0 -31 -31 -31h-129q-31 0 -31 31v608l-475 799q-10 15 -4 26zM309 1761q0 54 33 83.5t84 29.5q53 0 86 -29.5t33 -83.5q0 -108 -119 -108q-117 0 -117 108z M676 1761q0 54 33.5 83.5t85.5 29.5q53 0 85.5 -29.5t32.5 -83.5q0 -108 -118 -108q-119 0 -119 108z" />
<glyph unicode="&#x2c6;" horiz-adv-x="630" d="M14.5 1278.5q1.5 11.5 10.5 17.5l270 197q6 6 12 6q2 2 8 2q7 0 9 -2q6 0 12 -6l270 -197q7 -6 9 -17.5t-3 -18.5l-30 -54q-10 -21 -35 -10l-232 104l-231 -104q-25 -11 -35 10l-31 54q-5 7 -3.5 18.5z" />
<glyph unicode="&#x2dc;" horiz-adv-x="686" d="M18 1245q-17 23 0 43q109 121 193 133q47 8 98 -9.5t92 -39.5t60 -22q37 0 67.5 14.5t79.5 56.5q28 25 43 -2l19 -24q13 -23 0 -41q-40 -56 -90 -95.5t-99 -46.5q-42 -7 -93 12.5t-94.5 42.5t-64.5 23q-40 0 -70.5 -14t-78.5 -57q-27 -23 -45 4z" />
<glyph unicode="&#x2000;" horiz-adv-x="1000" />
<glyph unicode="&#x2001;" horiz-adv-x="2001" />
<glyph unicode="&#x2002;" horiz-adv-x="1000" />
<glyph unicode="&#x2003;" horiz-adv-x="2001" />
<glyph unicode="&#x2004;" horiz-adv-x="667" />
<glyph unicode="&#x2005;" horiz-adv-x="500" />
<glyph unicode="&#x2006;" horiz-adv-x="333" />
<glyph unicode="&#x2007;" horiz-adv-x="333" />
<glyph unicode="&#x2008;" horiz-adv-x="250" />
<glyph unicode="&#x2009;" horiz-adv-x="400" />
<glyph unicode="&#x200a;" horiz-adv-x="111" />
<glyph unicode="&#x2010;" horiz-adv-x="690" d="M47 475v90q0 31 31 31h532q31 0 31 -31v-90q0 -31 -31 -31h-532q-31 0 -31 31z" />
<glyph unicode="&#x2011;" horiz-adv-x="690" d="M47 475v90q0 31 31 31h532q31 0 31 -31v-90q0 -31 -31 -31h-532q-31 0 -31 31z" />
<glyph unicode="&#x2012;" horiz-adv-x="690" d="M47 475v90q0 31 31 31h532q31 0 31 -31v-90q0 -31 -31 -31h-532q-31 0 -31 31z" />
<glyph unicode="&#x2013;" horiz-adv-x="1077" d="M47 475v90q0 31 31 31h921q31 0 31 -31v-90q0 -31 -31 -31h-921q-31 0 -31 31z" />
<glyph unicode="&#x2014;" horiz-adv-x="1753" d="M47 475v90q0 31 31 31h1595q31 0 31 -31v-90q0 -31 -31 -31h-1595q-31 0 -31 31z" />
<glyph unicode="&#x2018;" horiz-adv-x="299" d="M27 1217l135 333q10 24 35 17l57 -15q25 -7 22 -30l-53 -359q-1 -17 -13.5 -25t-27.5 -3l-133 34q-15 5 -21.5 18t-0.5 30z" />
<glyph unicode="&#x2019;" horiz-adv-x="299" d="M25 1182l51 358q2 15 14 23t29 4l133 -33q32 -11 22 -47l-137 -334q-9 -22 -35 -18l-57 16q-23 7 -20 31z" />
<glyph unicode="&#x201a;" horiz-adv-x="350" d="M49 -172l51 358q3 15 15.5 23t27.5 4l133 -35q14 -5 20.5 -17.5t2.5 -27.5l-137 -334q-3 -10 -13.5 -15t-21.5 -3l-57 14q-10 3 -16.5 12.5t-4.5 20.5z" />
<glyph unicode="&#x201c;" horiz-adv-x="608" d="M27 1217l135 333q10 24 35 17l57 -15q25 -7 22 -30l-53 -359q-1 -17 -13.5 -25t-27.5 -3l-133 34q-15 5 -21.5 18t-0.5 30zM334 1217l137 333q3 10 13.5 15t21.5 2l57 -15q24 -7 21 -30l-52 -359q-3 -17 -15.5 -25t-27.5 -3l-133 34q-14 5 -20 18t-2 30z" />
<glyph unicode="&#x201d;" horiz-adv-x="606" d="M25 1184l51 358q2 15 14 23t29 4l133 -35q14 -5 20 -17.5t2 -27.5l-137 -334q-9 -22 -35 -18l-57 14q-10 3 -16 12.5t-4 20.5zM330 1182l51 358q3 15 15.5 23t27.5 4l133 -33q15 -5 22 -17.5t1 -29.5l-136 -334q-9 -22 -34 -18l-58 16q-25 7 -22 31z" />
<glyph unicode="&#x201e;" horiz-adv-x="657" d="M49 -172l51 358q3 15 15.5 23t27.5 4l133 -35q14 -5 20.5 -17.5t2.5 -27.5l-137 -334q-3 -10 -13.5 -15t-21.5 -3l-57 14q-10 3 -16.5 12.5t-4.5 20.5zM356 -172l52 358q3 15 15.5 23t27.5 4l133 -35q15 -5 21.5 -17.5t0.5 -27.5l-135 -334q-9 -22 -35 -18l-57 14 q-11 3 -17.5 13t-5.5 20z" />
<glyph unicode="&#x2022;" horiz-adv-x="505" d="M49 604q0 90 58 140.5t145 50.5q90 0 147.5 -50t57.5 -141q0 -97 -56 -142.5t-149 -45.5q-91 0 -147 45.5t-56 142.5z" />
<glyph unicode="&#x2026;" horiz-adv-x="1001" d="M129 94q0 54 35 84.5t88 30.5q45 0 84 -27q34 27 82 27q53 0 88 -30.5t35 -84.5q0 -59 -34 -86.5t-89 -27.5q-54 0 -82 22q-32 -22 -84 -22q-55 0 -89 27.5t-34 86.5zM707 94q0 54 34 84.5t88 30.5q53 0 88 -30.5t35 -84.5q0 -59 -34 -86.5t-89 -27.5q-122 0 -122 114z " />
<glyph unicode="&#x202f;" horiz-adv-x="400" />
<glyph unicode="&#x2039;" horiz-adv-x="542" d="M78 512q0 6 8 18l276 392q10 20 33 8l56 -33q19 -13 10 -35l-172 -350l172 -350q9 -22 -10 -35l-56 -33q-20 -12 -33 8l-276 392q-8 12 -8 18z" />
<glyph unicode="&#x203a;" horiz-adv-x="542" d="M80 162l174 350l-174 350q-9 20 10 35l55 33q22 11 35 -8l275 -392q8 -12 8 -18t-8 -18l-275 -392q-13 -19 -35 -8l-55 33q-19 15 -10 35z" />
<glyph unicode="&#x205f;" horiz-adv-x="500" />
<glyph unicode="&#x20ac;" horiz-adv-x="1349" d="M113 461v84q0 30 30 30h115q-6 55 -6 111q0 13 1 36t1 34h-111q-30 0 -30 30v84q0 31 30 31h131q53 233 215.5 362.5t403.5 129.5q236 0 383 -101q9 -6 11 -17t-3 -20l-47 -84q-18 -29 -53 -8q-133 70 -293 70q-157 0 -268 -82.5t-156 -243.5h561q18 0 24 -10t-3 -27 l-52 -92q-11 -22 -36 -22h-521q-2 -23 -2 -70q0 -54 6 -104h400q18 0 23.5 -10t-3.5 -27l-51 -92q-11 -23 -37 -23h-299q52 -143 160 -217t256 -74q83 0 168 33.5t151 81.5q38 26 56 -4l47 -82q6 -9 5.5 -20t-9.5 -17q-84 -64 -201 -107.5t-238 -43.5q-229 0 -381 117.5 t-208 332.5h-140q-30 0 -30 31z" />
<glyph unicode="&#x2122;" horiz-adv-x="1431" d="M35 1360v59q0 31 31 31h458q31 0 31 -31v-59q0 -31 -31 -31h-166v-436q0 -31 -30 -31h-66q-31 0 -31 31v436h-165q-31 0 -31 31zM647 893v526q0 31 31 31h49q27 0 45 -18l182 -205l181 205q18 18 45 18h49q31 0 31 -31v-526q0 -31 -31 -31h-64q-32 0 -32 31l2 362 l-148 -163q-15 -15 -33 -15q-17 0 -32 15l-150 163l2 -362q0 -31 -31 -31h-65q-31 0 -31 31z" />
<glyph unicode="&#x25fc;" horiz-adv-x="1013" d="M0 0v1014h1014v-1014h-1014z" />
<glyph unicode="&#xfb03;" horiz-adv-x="1765" d="M31 895v78l137 35v198q0 154 76 242t219 88q93 0 209 -43q32 -14 28 -31l-14 -80q-3 -19 -10.5 -28.5t-20.5 -3.5q-86 28 -145 28q-86 0 -123 -45t-37 -159v-156h451v188q0 154 77.5 242t223.5 88q88 0 146 -10t120 -33q31 -13 29 -31l-17 -80q-3 -19 -10 -28.5t-20 -3.5 q-86 28 -205 28q-87 0 -124.5 -45.5t-37.5 -158.5v-156h584q30 0 30 -31v-956q0 -31 -30 -31h-121q-31 0 -31 31v833h-432v-833q0 -31 -31 -31h-121q-30 0 -30 31v833h-451v-833q0 -31 -31 -31h-120q-31 0 -31 31v833h-107q-30 0 -30 31z" />
</font>
</defs>
</svg>
