<?xml version="1.0" encoding="utf-8"?>
<!-- Generator: Adobe Illustrator 19.2.1, SVG Export Plug-In . SVG Version: 6.00 Build 0)  -->
<svg version="1.1" id="Calque_1" xmlns="http://www.w3.org/2000/svg" xmlns:xlink="http://www.w3.org/1999/xlink" x="0px" y="0px"
	 viewBox="0 0 978.7 274.8" style="enable-background:new 0 0 978.7 274.8;" xml:space="preserve">
<style type="text/css">
	.st0{opacity:0.94;}
	.st1{enable-background:new    ;}
	.st2{fill:#014556;}
</style>
<title>arcticlogo</title>
<g class="st0">
	<g class="st1">
		<path class="st2" d="M106.1,223.9l-0.6,1c-2.7-1.7-6.8-2.8-10.5-2.8c-7.3,0-12.1,3.2-12.1,8.1c0,14,25.1,6.8,25,22.3
			c0,6.1-5.6,10.1-14.1,10.1c-5.3,0-10.8-2.3-14.3-5.8l0.8-0.8c3.2,3.3,8.4,5.5,13.4,5.5c7.9,0,13-3.5,13-9c0.1-14.3-25-7.2-25-22.3
			c0-5.6,5.3-9.3,13.3-9.3C98.9,220.9,103.2,222,106.1,223.9z"/>
		<path class="st2" d="M150.6,262.6L121.2,222v40.5H120v-41.7h1.8l29.4,40.5v-40.5h1.2v41.7H150.6z"/>
		<path class="st2" d="M198.8,226.2L198,227c-3.6-3.2-8.4-5-13.6-5c-11.2,0-20.3,8.8-20.3,19.7c0,10.9,9.1,19.8,20.3,19.8
			c5.2,0,10-1.9,13.6-5.1l0.8,0.8c-3.8,3.3-8.9,5.4-14.4,5.4c-11.8,0-21.4-9.4-21.4-20.9s9.7-20.8,21.4-20.8
			C190,220.9,195,222.9,198.8,226.2z"/>
		<path class="st2" d="M211,222v20.1h20.4v1.2H211v19.3h-1.2v-41.7h24.3v1.2H211z"/>
		<path class="st2" d="M276.6,220.9c11.8,0,21.4,9.4,21.4,20.9c0,11.5-9.6,20.8-21.4,20.8h-16.4v-41.7H276.6z M261.4,261.4h15.2
			c11.1,0,20.2-8.8,20.2-19.6c0-10.9-9.1-19.7-20.2-19.7h-15.2V261.4z"/>
		<path class="st2" d="M308.6,262.6v-41.7h1.2v41.7H308.6z"/>
		<path class="st2" d="M363.3,241.7c0,11.5-9.7,20.9-21.4,20.9s-21.4-9.4-21.4-20.9s9.7-20.8,21.4-20.8S363.3,230.2,363.3,241.7z
			 M321.6,241.7c0,10.8,9.1,19.7,20.2,19.7c11.1,0,20.2-8.9,20.2-19.7c0-10.8-9.1-19.6-20.2-19.6C330.8,222,321.6,230.9,321.6,241.7
			z"/>
		<path class="st2" d="M400.9,262.6h-1.4l-14.9-20.7l-14.9,20.7h-1.4l15.6-21.6l-14.4-20.1h1.4l13.7,19.1l13.8-19.1h1.4L385.3,241
			L400.9,262.6z"/>
		<path class="st2" d="M422.3,262.6h-1.2v-16.1l-17-25.7h1.4l16.2,24.5l15.9-24.5h1.4l-16.8,25.7V262.6z"/>
		<path class="st2" d="M463.7,220.9c11.8,0,21.4,9.4,21.4,20.9c0,11.5-9.6,20.8-21.4,20.8h-16.4v-41.7H463.7z M448.5,261.4h15.2
			c11.1,0,20.2-8.8,20.2-19.6c0-10.9-9.1-19.7-20.2-19.7h-15.2V261.4z"/>
		<path class="st2" d="M496.9,222v18.4H519v1.2h-22.1v19.7h25.7v1.2h-26.9v-41.7h26.1v1.2H496.9z"/>
		<path class="st2" d="M583.1,226.2l-0.8,0.8c-3.6-3.2-8.4-5-13.5-5c-11.2,0-20.3,8.8-20.3,19.7c0,10.9,9.1,19.8,20.3,19.8
			c5.2,0,10-1.9,13.5-5.1l0.8,0.8c-3.8,3.3-8.9,5.4-14.4,5.4c-11.8,0-21.4-9.4-21.4-20.9s9.7-20.8,21.4-20.8
			C574.3,220.9,579.3,222.9,583.1,226.2z"/>
		<path class="st2" d="M625.3,262.6v-20.5h-30v20.5h-1.2v-41.7h1.2v20.1h30v-20.1h1.2v41.7H625.3z"/>
		<path class="st2" d="M642,249.9l-5.8,12.7h-1.4l19.1-41.7h1.3l19.3,41.7h-1.4l-5.8-12.7H642z M654.5,222.2l-12,26.4h24.2
			L654.5,222.2z"/>
		<path class="st2" d="M702.6,261.4v1.2h-19.9v-41.7h1.2v40.5H702.6z"/>
		<path class="st2" d="M732,261.4v1.2h-19.9v-41.7h1.2v40.5H732z"/>
		<path class="st2" d="M742.6,222v18.4h22.1v1.2h-22.1v19.7h25.7v1.2h-26.9v-41.7h26.1v1.2H742.6z"/>
		<path class="st2" d="M810.4,262.6L781,222v40.5h-1.2v-41.7h1.8l29.4,40.5v-40.5h1.2v41.7H810.4z"/>
		<path class="st2" d="M858.7,257.1c-3.8,3.3-8.9,5.4-14.4,5.4c-11.8,0-21.4-9.4-21.4-20.9s9.7-20.8,21.4-20.8
			c5.5,0,10.5,2,14.3,5.4l-0.8,0.8c-3.6-3.2-8.4-5-13.5-5c-11.2,0-20.3,8.8-20.3,19.7c0,10.9,9.1,19.8,20.3,19.8
			c5,0,9.7-1.8,13.2-4.8v-14.6h1.2V257.1z"/>
		<path class="st2" d="M874.1,222v18.4h22.1v1.2h-22.1v19.7h25.7v1.2h-26.9v-41.7H899v1.2H874.1z"/>
	</g>
	<polygon class="st2" points="129.9,116 136.1,129.5 129.9,116 	"/>
	<polygon class="st2" points="78.8,5.8 129.9,116 129.9,116 136.1,129.7 137.6,133 137.6,133 153.3,167 158.8,167 81.5,0 76.3,0 
		0,167 5.7,167 21.3,133 21.2,133 	"/>
	<polygon class="st2" points="136.1,129.9 137.6,133 137.6,133 	"/>
	<path class="st2" d="M295.1,107.7l43.1,59.3h-6l-42.4-58.6c-4.8,0.5-9.8,0.6-15.3,0.6h-51.9v58h-5V0h56.9
		c40.5,0,63.6,19.9,63.6,54.2C338.2,82.8,322.7,101.8,295.1,107.7z M274.6,105c37.4,0,58.9-18.4,58.9-50.6C333.5,22.9,312,5,274.6,5
		h-51.9v100H274.6z"/>
	<path class="st2" d="M540.6,21.5l-3.1,3.1c-15-13-34.2-20.2-54.1-20c-44.6,0-81,35.3-81,78.7s36.5,78.9,81,78.9
		c19.9,0.1,39.1-7.1,54.1-20.3l3.3,3.1c-15.9,13.9-36.3,21.6-57.5,21.7c-47,0-85.6-37.7-85.6-83.4s38.6-83.2,85.6-83.2
		C504.4,0,524.8,7.7,540.6,21.5z"/>
	<path class="st2" d="M645.7,5v162h-5V5h-57V0h119v5H645.7z"/>
	<path class="st2" d="M762.7,167V0h4v167H762.7z"/>
	<path class="st2" d="M978.5,21.5l-3.1,3.1c-15-13-34.2-20.2-54.1-20c-44.6,0-81,35.3-81,78.7s36.5,78.9,81,78.9
		c19.9,0.1,39.1-7.1,54.1-20.3l3.3,3.1c-15.9,13.9-36.3,21.6-57.5,21.7c-47,0-85.6-37.7-85.6-83.4s38.6-83.2,85.6-83.2
		C942.3,0,962.6,7.7,978.5,21.5z"/>
</g>
</svg>
