<?xml version="1.0" encoding="UTF-8" standalone="no"?><!DOCTYPE svg PUBLIC "-//W3C//DTD SVG 1.1//EN" "http://www.w3.org/Graphics/SVG/1.1/DTD/svg11.dtd"><svg width="100%" height="100%" viewBox="0 0 847 275" version="1.1" xmlns="http://www.w3.org/2000/svg" xmlns:xlink="http://www.w3.org/1999/xlink" xml:space="preserve" xmlns:serif="http://www.serif.com/" style="fill-rule:evenodd;clip-rule:evenodd;stroke-linejoin:round;stroke-miterlimit:1.41421;"><g opacity="0.94"><g><path d="M281.83,191.693c1.555,1.56 2.333,3.45 2.333,5.67c0,2.316 -0.825,4.292 -2.465,5.937c-1.649,1.645 -3.625,2.465 -5.936,2.465l-0.671,0c-3.467,0.183 -6.731,0.983 -9.8,2.402c-3.068,1.422 -5.736,3.315 -8.002,5.67c-2.268,2.361 -4.049,5.095 -5.337,8.202c-1.288,3.116 -1.934,6.452 -1.934,10.004l0,34.686c0,2.316 -0.82,4.27 -2.464,5.87c-1.65,1.598 -3.628,2.4 -5.937,2.4c-2.315,0 -4.267,-0.802 -5.869,-2.4c-1.597,-1.6 -2.4,-3.554 -2.4,-5.87l0,-34.686c0,-5.865 1.087,-11.359 3.264,-16.469c2.18,-5.113 5.137,-9.609 8.876,-13.473c3.733,-3.871 8.131,-6.958 13.203,-9.274c5.07,-2.311 10.488,-3.559 16.271,-3.735l1.199,0c2.219,0.176 4.113,1.045 5.669,2.601" style="fill:#14496b;fill-rule:nonzero;"/><path d="M326.975,189.093c5.954,0 11.541,1.134 16.739,3.4c5.201,2.269 9.736,5.331 13.607,9.205c3.863,3.869 6.934,8.429 9.2,13.671c2.269,5.251 3.403,10.809 3.403,16.675l0,34.685c0,2.314 -0.8,4.268 -2.405,5.871c-1.595,1.595 -3.554,2.4 -5.864,2.4c-2.316,0 -4.292,-0.805 -5.937,-2.4c-1.652,-1.603 -2.469,-3.557 -2.469,-5.871l0,-16.009l-26.274,0l0,-0.136c-0.267,0.094 -0.755,0.136 -1.466,0.136c-2.932,0 -5.736,0.449 -8.406,1.338c-2.664,0.889 -5.089,2.13 -7.266,3.735c-2.179,1.6 -4.066,3.515 -5.669,5.734c-1.602,2.227 -2.803,4.667 -3.603,7.332c-0.089,0.094 -0.131,0.184 -0.131,0.268c0,0.096 -0.047,0.183 -0.137,0.267c-0.527,1.692 -1.508,3.049 -2.932,4.072c-1.424,1.023 -3.068,1.534 -4.933,1.534c-2.316,0 -4.267,-0.805 -5.872,-2.4c-1.595,-1.603 -2.397,-3.557 -2.397,-5.871l0,-1.201l0,-33.484c0,-5.244 0.884,-10.183 2.664,-14.803c2.138,-5.694 5.337,-10.757 9.604,-15.211c4.003,-4.003 8.604,-7.156 13.802,-9.472c5.201,-2.309 10.781,-3.465 16.742,-3.465m26.274,44.95l0,-1.999c0,-4.62 -1.109,-8.89 -3.336,-12.801c0,-0.09 -0.02,-0.157 -0.067,-0.204c-0.047,-0.047 -0.064,-0.111 -0.064,-0.2c-0.357,-0.535 -0.713,-1.07 -1.07,-1.598c-0.354,-0.535 -0.711,-1.028 -1.06,-1.471c-2.405,-3.111 -5.387,-5.561 -8.94,-7.332c-3.557,-1.784 -7.47,-2.675 -11.737,-2.675c-4.27,0 -8.205,0.956 -11.801,2.871c-3.603,1.914 -6.607,4.428 -9.005,7.54c-1.691,2.219 -3.004,4.664 -3.937,7.331c-0.932,2.673 -1.4,5.514 -1.4,8.539l0,9.87c3.465,-2.486 7.289,-4.421 11.474,-5.801c4.173,-1.374 8.579,-2.07 13.203,-2.07l27.74,0Z" style="fill:#14496b;fill-rule:nonzero;"/><path d="M443.415,191.562c1.6,1.645 2.397,3.629 2.397,5.935c0,2.319 -0.797,4.271 -2.397,5.868c-1.602,1.603 -3.559,2.403 -5.864,2.403l-10.278,0l-11.063,0l0,60.966c0,2.309 -0.827,4.263 -2.472,5.866c-1.642,1.602 -3.625,2.4 -5.936,2.4c-2.308,0 -4.267,-0.798 -5.865,-2.4c-1.602,-1.603 -2.404,-3.557 -2.404,-5.866l0,-60.966l-10.132,0l-11.209,0c-2.308,0 -4.267,-0.8 -5.864,-2.403c-1.603,-1.597 -2.405,-3.549 -2.405,-5.868c0,-2.306 0.802,-4.29 2.405,-5.935c1.597,-1.644 3.556,-2.469 5.864,-2.469l59.359,0c2.305,0 4.262,0.825 5.864,2.469" style="fill:#14496b;fill-rule:nonzero;"/><path d="M466.89,184.954c-2.319,0 -4.27,-0.813 -5.865,-2.445c-1.605,-1.632 -2.405,-3.599 -2.405,-5.89c0,-2.292 0.8,-4.258 2.405,-5.891c1.595,-1.632 3.546,-2.452 5.865,-2.452c2.308,0 4.284,0.82 5.933,2.452c1.647,1.633 2.467,3.599 2.467,5.891c0,2.291 -0.82,4.258 -2.467,5.89c-1.649,1.632 -3.625,2.445 -5.933,2.445m0,10.004c2.308,0 4.284,0.825 5.933,2.47c1.647,1.645 2.467,3.621 2.467,5.937l0,63.226c0,2.318 -0.82,4.292 -2.467,5.937c-1.649,1.647 -3.625,2.472 -5.933,2.472c-2.319,0 -4.27,-0.825 -5.865,-2.472c-1.605,-1.645 -2.405,-3.619 -2.405,-5.937l0,-23.611l0,-3.599l0,-0.803l0,-0.931l0,-34.282c0,-2.316 0.8,-4.292 2.405,-5.937c1.595,-1.645 3.546,-2.47 5.865,-2.47" style="fill:#14496b;fill-rule:nonzero;"/><path d="M558.385,191.562c1.6,1.645 2.397,3.629 2.397,5.935c0,2.319 -0.797,4.271 -2.397,5.868c-1.603,1.603 -3.559,2.403 -5.865,2.403l-10.277,0l-11.063,0l0,60.966c0,2.309 -0.825,4.263 -2.469,5.866c-1.645,1.602 -3.629,2.4 -5.939,2.4c-2.311,0 -4.27,-0.798 -5.87,-2.4c-1.6,-1.603 -2.4,-3.557 -2.4,-5.866l0,-60.966l-10.134,0l-11.206,0c-2.311,0 -4.27,-0.8 -5.865,-2.403c-1.605,-1.597 -2.404,-3.549 -2.404,-5.868c0,-2.306 0.799,-4.29 2.404,-5.935c1.595,-1.644 3.554,-2.469 5.865,-2.469l59.358,0c2.306,0 4.262,0.825 5.865,2.469" style="fill:#14496b;fill-rule:nonzero;"/><path d="M647.88,189.093c2.308,0 4.267,0.824 5.87,2.469c1.597,1.645 2.399,3.621 2.399,5.932l0,34.686c0,5.873 -1.134,11.404 -3.403,16.606c-2.266,5.199 -5.334,9.737 -9.2,13.608c-3.871,3.869 -8.408,6.936 -13.606,9.202c-5.201,2.269 -10.734,3.404 -16.603,3.404c-5.959,0 -11.541,-1.135 -16.742,-3.404c-5.201,-2.266 -9.735,-5.333 -13.604,-9.202c-3.866,-3.871 -6.934,-8.409 -9.203,-13.608c-2.266,-5.202 -3.4,-10.733 -3.4,-16.606l0,-34.686c0,-2.311 0.825,-4.287 2.469,-5.932c1.645,-1.645 3.621,-2.469 5.937,-2.469c2.308,0 4.267,0.819 5.864,2.462c1.602,1.639 2.402,3.616 2.402,5.922l0,34.619c0,3.638 0.691,7.034 2.068,10.19c1.377,3.143 3.247,5.918 5.605,8.315c2.35,2.401 5.134,4.283 8.333,5.658c3.2,1.379 6.618,2.061 10.271,2.061c3.554,0 6.934,-0.682 10.134,-2.061c3.202,-1.375 5.998,-3.257 8.403,-5.658c2.4,-2.397 4.287,-5.172 5.669,-8.315c1.379,-3.156 2.068,-6.552 2.068,-10.19l-0.132,0l0,-34.619c0,-2.306 0.818,-4.283 2.465,-5.922c1.644,-1.643 3.618,-2.462 5.936,-2.462" style="fill:#14496b;fill-rule:nonzero;"/><path d="M751.659,232.863c0,0.714 -0.025,1.4 -0.064,2.066c-0.05,0.671 -0.114,1.36 -0.203,2.073c-0.446,3.647 -1.335,7.161 -2.673,10.533c-1.334,3.383 -3.051,6.541 -5.146,9.477c-2.088,2.932 -4.535,5.58 -7.34,7.936c-2.809,2.358 -5.858,4.335 -9.151,5.94c-6.861,3.2 -14.072,4.535 -21.643,3.995c-7.569,-0.535 -14.513,-2.935 -20.843,-7.196c-6.053,-4.099 -10.751,-9.412 -14.094,-15.949c-3.334,-6.532 -4.914,-13.448 -4.735,-20.74c0.178,-4.535 1.02,-8.939 2.536,-13.21c1.505,-4.27 3.638,-8.221 6.399,-11.867c3.465,-4.538 7.685,-8.204 12.668,-11.008c4.98,-2.801 10.273,-4.555 15.872,-5.266c5.605,-0.713 11.16,-0.314 16.67,1.199c5.513,1.513 10.496,4 14.941,7.468l0.131,0l0,-22.008c0,-2.318 0.808,-4.27 2.422,-5.873c1.613,-1.598 3.584,-2.398 5.919,-2.398c2.326,0 4.297,0.8 5.91,2.398c1.617,1.603 2.424,3.555 2.424,5.873l0,56.557Zm-23.134,16.678c3.116,-3.644 5.139,-7.808 6.073,-12.474c0.931,-4.667 0.599,-9.274 -1.003,-13.81c-1.248,-3.467 -3.135,-6.531 -5.664,-9.204c-2.533,-2.665 -5.448,-4.714 -8.737,-6.131c-3.378,-1.516 -6.91,-2.269 -10.598,-2.269c-3.68,0 -7.164,0.753 -10.446,2.269c-1.426,0.711 -2.781,1.464 -4.061,2.262c-1.288,0.807 -2.512,1.739 -3.663,2.804c-2.308,2.313 -4.173,4.961 -5.59,7.944c-1.426,2.972 -2.221,6.155 -2.4,9.534c-0.178,2.932 0.114,5.848 0.865,8.741c0.755,2.883 2.021,5.531 3.796,7.931c1.778,2.581 3.931,4.778 6.457,6.601c2.536,1.824 5.265,3.141 8.192,3.936c2.843,0.714 5.778,0.979 8.797,0.803c3.016,-0.178 5.902,-0.887 8.658,-2.133c-0.716,0.357 -1.426,0.689 -2.14,0.998c-0.713,0.315 -1.471,0.6 -2.273,0.865c1.691,-0.617 3.425,-1.328 5.208,-2.135c3.376,-1.687 6.221,-3.864 8.529,-6.532" style="fill:#14496b;fill-rule:nonzero;"/><path d="M847,232.244c-0.089,2.311 -0.958,4.263 -2.6,5.861c-1.652,1.597 -3.629,2.447 -5.937,2.529l-59.351,0c0.349,1.067 0.845,2.179 1.466,3.329c0.444,0.891 0.892,1.736 1.338,2.531c0.436,0.8 0.881,1.595 1.327,2.398c-0.446,-0.711 -0.842,-1.395 -1.199,-2.066c-0.356,-0.666 -0.713,-1.347 -1.067,-2.066c1.424,2.584 3.244,4.885 5.466,6.931c2.226,2.041 4.713,3.636 7.474,4.795c2.932,1.241 6.182,1.952 9.736,2.126l0.534,0c2.311,0 4.245,0.782 5.801,2.333c1.555,1.556 2.33,3.485 2.33,5.796c0,2.306 -0.775,4.261 -2.33,5.858c-1.556,1.598 -3.49,2.401 -5.801,2.401l-1.537,0c-0.486,0 -0.956,-0.05 -1.402,-0.139c-3.732,-0.265 -7.378,-1.013 -10.934,-2.262c-3.557,-1.241 -6.868,-2.861 -9.936,-4.862c-3.066,-1.997 -5.85,-4.369 -8.336,-7.124c-2.487,-2.749 -4.582,-5.813 -6.269,-9.192c-3.289,-6.661 -4.779,-13.69 -4.47,-21.107c0.315,-7.413 2.422,-14.272 6.34,-20.578c0.352,-0.535 0.731,-1.085 1.127,-1.67c0.404,-0.575 0.827,-1.132 1.273,-1.662c3.286,-4.441 7.289,-8.058 12.001,-10.852c4.713,-2.796 9.736,-4.684 15.073,-5.665c6.845,-1.062 13.606,-0.532 20.273,1.598c6.665,2.13 12.408,5.687 17.202,10.659c3.911,3.995 6.957,8.523 9.136,13.583c2.18,5.063 3.272,10.389 3.272,15.982l0,0.535Zm-56.954,-22.377c-2.58,1.692 -4.802,3.75 -6.664,6.192c-1.87,2.445 -3.292,5.091 -4.27,7.927l50.151,0c-0.446,-1.33 -1.07,-2.75 -1.873,-4.263c-1.686,-3.196 -3.974,-5.925 -6.865,-8.187c-2.892,-2.269 -6.117,-3.884 -9.673,-4.862c-3.465,-0.981 -7.021,-1.177 -10.664,-0.599c-3.653,0.574 -7.031,1.84 -10.142,3.792" style="fill:#14496b;fill-rule:nonzero;"/><path d="M152.349,274.999l-0.005,0c-2.799,0 -5.473,-1.127 -7.435,-3.121l-3.824,-3.887c-52.981,-53.842 -117.979,-120.686 -126.788,-131.86c-0.104,-0.134 -0.205,-0.265 -0.299,-0.399l-0.322,-0.451c-0.117,-0.163 -0.231,-0.327 -0.337,-0.495l-0.701,-1.12c-8.309,-13.826 -12.638,-29.491 -12.638,-45.5c0,-48.616 39.546,-88.166 88.151,-88.166c21.207,0 41.711,7.671 57.749,21.604l6.449,5.596l6.454,-5.608c16.026,-13.921 36.537,-21.592 57.736,-21.592c48.613,0 88.159,39.55 88.159,88.166c0,16.031 -4.332,31.706 -12.534,45.349c-0.07,0.117 -0.139,0.223 -0.206,0.335l-1.008,1.538c-0.171,0.262 -0.356,0.52 -0.552,0.76c-2.108,2.673 -4.141,4.803 -9.562,10.505l-6.612,6.953c-1.969,2.078 -4.708,3.26 -7.576,3.26l-14.825,0c-4.178,0 -7.95,-2.495 -9.594,-6.331c-1.645,-3.847 -0.837,-8.293 2.045,-11.318l8.465,-8.848c7.014,-7.324 10.442,-10.906 12.403,-13.257l0.079,-0.126c5.104,-8.516 7.866,-18.553 7.866,-28.82c0,-31.185 -25.368,-56.555 -56.548,-56.555c-13.581,0 -26.727,4.922 -37.01,13.859l-20.337,17.664c-3.931,3.403 -9.768,3.403 -13.688,-0.008l-20.326,-17.656c-10.292,-8.937 -23.438,-13.859 -37.027,-13.859c-31.177,0 -56.54,25.37 -56.54,56.555c0,10.223 2.744,20.23 7.945,28.924c7.682,9.264 53.226,56.609 112.793,117.271c11.89,-12.11 23.238,-23.697 33.934,-34.665l-29.251,0c-5.768,0 -10.436,-4.67 -10.436,-10.441l0,-10.755c0,-5.769 4.668,-10.438 10.436,-10.438l79.337,0c4.19,0 7.972,2.502 9.612,6.356c1.632,3.854 0.805,8.32 -2.103,11.327c-22.024,22.823 -50.529,52.032 -80.266,82.251l-3.831,3.887c-1.959,1.994 -4.636,3.116 -7.432,3.116" style="fill:#14496b;fill-rule:nonzero;"/></g></g></svg>