<?xml version="1.0" encoding="utf-8"?>
<!-- Generator: Adobe Illustrator 19.2.1, SVG Export Plug-In . SVG Version: 6.00 Build 0)  -->
<svg version="1.1" id="Calque_1" xmlns="http://www.w3.org/2000/svg" xmlns:xlink="http://www.w3.org/1999/xlink" x="0px" y="0px"
	 viewBox="0 0 836.1 383" style="enable-background:new 0 0 836.1 383;" xml:space="preserve">
<style type="text/css">
	.st0{fill:none;}
	.st1{fill:#A5CBD4;}
	.st2{fill:#FFFFFF;}
	.st3{fill:#D6E8E8;}
	.st4{fill:#99C3CE;}
	.st5{fill:#91B7C2;}
</style>
<polygon class="st0" points="422.5,56.2 419.2,63.6 415.3,67.7 419.2,63.6 "/>
<polygon class="st0" points="351.9,136.1 343.1,162.4 346,154.3 "/>
<polygon class="st0" points="357.2,179.6 355.3,170.9 358.5,187.1 358.5,187.1 "/>
<polygon class="st0" points="302.6,258 300.8,267.1 300.9,267.2 302.6,259 306.1,259 314.7,260.8 315.1,260.4 306.1,258 "/>
<polygon class="st0" points="371.7,173.2 366.5,176.4 366.5,176.4 371.7,173.2 "/>
<polygon class="st0" points="490.3,345.2 490.4,345.3 490.3,345.3 490.3,345.2 490.3,319.5 493.5,311.8 490.3,319.5 "/>
<polygon class="st0" points="335.3,234.3 343.1,229.9 339.8,231.8 "/>
<polygon class="st0" points="245.5,183 240.3,183 245.4,183 "/>
<polygon class="st0" points="355,105.5 351.9,136.1 354.8,108.8 "/>
<polygon class="st0" points="508.7,374.1 508.6,374 508.6,374.1 "/>
<polygon class="st0" points="428.4,209.3 422.8,197 418.4,197 418.2,197 422.8,197 428.6,209.3 437.3,210.5 437.3,210.5 
	445.5,211.6 447.8,203.8 447.8,203.8 445.3,211.6 "/>
<polygon class="st0" points="307.5,297.7 276,347 288,328.2 "/>
<polygon class="st0" points="417.3,190.9 414,189.9 412.4,183.5 413.5,189.9 416.3,190.9 416.3,197 417.3,197 "/>
<polygon class="st0" points="475.1,36.2 470.8,37 475.1,36.2 "/>
<polygon class="st0" points="429.8,183.7 415.7,174.6 423.1,179.8 "/>
<polygon class="st0" points="591.9,355.5 591.9,355.5 564.8,373.3 "/>
<polygon class="st0" points="240.1,383.2 240.1,383.2 252.2,373.4 "/>
<polygon class="st0" points="405.2,172 405.2,172 412.4,183.2 "/>
<polygon class="st0" points="222.8,203.5 230.8,210 224.3,204.7 "/>
<polygon class="st0" points="207.1,219.1 211.4,215.8 207.1,219.1 "/>
<polygon class="st0" points="258.3,239.7 242.3,267.6 228.1,279.5 242.3,267.6 258.3,239.7 274.2,220 264.5,231.9 "/>
<polygon class="st0" points="195.2,243 196.3,246.2 190.7,229 "/>
<polygon class="st0" points="756,383 756,383 732.8,368.4 "/>
<polygon class="st0" points="457.5,159.4 451.5,141.6 451.5,141.6 "/>
<polygon class="st0" points="277.3,232 259.7,268.1 268.7,249.6 "/>
<polygon class="st0" points="564.8,373.3 570.6,383.2 570.6,383.2 564.8,373.3 541.5,375.3 "/>
<polygon class="st0" points="120,304.1 120,304.1 121,277.4 "/>
<polygon class="st1" points="387.9,30.4 387.9,30.4 387.9,30.4 "/>
<polygon class="st1" points="356.1,58 359.3,70.9 354.5,79.4 350.8,105.7 355,105.5 354.8,108.8 351.9,136.1 346,154.3 343.1,162.4 
	350.3,163.8 355.3,170.9 357.2,179.6 358.5,187.1 363.8,181.2 366.5,176.4 366.5,176.4 366.5,176.4 371.7,173.2 371.7,173.2 
	379.4,160 379.4,151.5 379.5,144.4 377.1,133.9 380.6,127.4 385.2,125.6 389.1,118.6 391.2,114.6 394.7,104.8 399.5,98.6 
	397.1,88.9 398.2,78.8 409.2,65.2 410.8,51.1 415.7,41.2 408.5,37.4 398.6,34.2 394.7,31 387.9,30.4 392.7,32 392,38 385.8,40 
	381.7,33.6 378.1,26.1 369,28.9 357.7,39.3 "/>
<polygon class="st1" points="513.4,117.9 521.4,142.7 527.1,173.3 543.4,202 568.9,220 580.1,220 572.3,217.2 572.4,217.2 
	572.3,217.1 562.6,203.2 555.6,197.6 551,198.4 537,163.8 524.6,127.9 519.6,122.8 513.4,106.6 508.7,100.3 502.9,80.2 506.5,102.6 
	"/>
<polygon class="st1" points="459.3,274.1 455.1,307.5 474.5,316.2 486.2,308.7 496.6,286.9 493.6,311.8 490.5,319.5 490.5,345.2 
	501.4,337.7 509.1,321.7 513.4,322.7 517.4,332.6 517.4,346.8 535.5,383.2 541.5,375.3 564.8,373.3 591.9,355.5 577,316.8 
	541.5,282 495.6,250 478.6,219.9 475.4,162.6 451.5,141.6 457.5,159.4 460.4,184.5 449.5,198.2 447.7,203.8 447.7,203.8 
	445.3,211.6 "/>
<path class="st2" d="M252.2,373.4L276,347l31.6-49.3l5-19.2l25.2-40.3l5.4-8.2l-7.8,4.4l-8.4,12.5l-6.3,7.9l-5.4,5.5l-0.4,0.6
	l0.4,0.1l-5.1,6.6l-5.9,3l-3.5-2.9l0.1-0.5l-0.1-0.1l1.8-9.3l-11.6,10.3l-4.5,1l-10.9,12.3l-9.8,13.4l-4.5,6.1l-8.2,7.9l-6.4,8.7
	l-1.5,6.9l-2.8-19.8l6.8-11.1l5.3-24l5.3-1.3l17.6-36.1v-5.3l5.1-10l-8.2,3.2l-16,19.7l-16,27.9l-14.2,11.9L208.2,290l-12.5,7.9v6.1
	l5.7,6.9l-14.5-6.1l5-4.1l2.1-7l-7.4-12.7l-9.9-5.3l-1.4-16.9l5.3-8.7l-1.8-15l7.8,2.9l9.6,8.1l-1.1-3.2l-4.5-14l0.5-9.1l20.2,10.1
	v-14.3l-4.3,3.4v0v-22.3l-5.8,10.1l-8.7,7v-4.6l-12.8,16.2l-9.1,5.9l-16,12.1l-4.8,7.3l-7.6,10.6l-17.9,8l-14.1,5.1l7.4,2.8l6.4-5.9
	l12.8-2.8l15.4,25.3l0,0l0,0l-21.8,26.5L120,304.1l0,0l0,0l1-26.7l-9,3.4l-6.4,4.3l-8.5-3.6l-0.1-7h0.1v-0.1l-6.4,1.6l-35.7,46.3
	l-17,30.4l-20.2,15L0,383.2h240.1L252.2,373.4z M167.3,247.9l-6.1,6.6l-3.2,3.2l-2.1-10.9l5.9-7.1l10.9-1.6L167.3,247.9z"/>
<polygon class="st1" points="307.8,238.1 296.2,229.7 289.8,221.5 282.4,216.7 277.3,226.8 277.3,232 268.7,249.6 259.7,268.1 
	254.3,269.5 249,293.4 242.3,304.5 245.1,324.3 246.5,317.4 252.9,308.7 261.2,300.7 275.5,281.2 286.4,268.9 290.9,267.9 
	302.6,257.7 306.1,257.7 315.1,260.2 320.6,254.7 316.3,247.9 "/>
<polygon class="st1" points="265.7,294.6 275.5,281.2 261.2,300.7 "/>
<polygon class="st3" points="373.9,171.9 371.7,173.2 371.7,173.2 "/>
<polygon class="st3" points="409.2,65.2 398.2,78.8 404.6,88.3 409.2,88.3 406.8,102.1 401.8,121.9 395.1,119.1 387.9,127.6 
	383.2,129.4 377.1,133.9 379.5,144.4 383.2,146.6 391.2,154.3 381.4,171.9 384.1,171.7 384.1,171.7 395.2,170.8 405.2,172.3 
	405.2,172.3 405.2,172.3 415.7,174.6 415.7,174.6 429.8,183.7 430,183.8 447.7,203.8 447.7,203.8 447.7,203.8 449.5,198.2 
	447.6,191.5 445.3,171.7 432.3,179.6 434,160.8 438.8,148.4 435.1,131 439.1,120.3 440.4,110.8 434.8,110.2 435.4,104.3 450.6,95 
	450.6,73.3 445.3,43.3 445.5,38 432.3,37 430.6,39.6 425,64.9 428.7,87.2 428,98.7 420.9,104.1 417,117.5 409.2,126.2 413.1,112 
	411.8,102.1 417.3,99.2 418.3,83.1 415.3,77.7 415.3,67.7 419.2,63.6 422.5,56.2 423.7,44.8 428.3,36.7 419.2,33.4 415.7,41.2 
	410.8,51.1 "/>
<polygon class="st3" points="381.3,171.9 381.4,171.9 391.2,154.3 383.2,146.6 379.5,144.4 379.4,151.5 379.4,160 371.7,173.2 
	371.7,173.2 373.9,171.9 "/>
<polygon class="st3" points="387.9,127.6 395.1,119.1 401.8,121.9 406.8,102.1 409.2,88.3 404.6,88.3 398.2,78.8 397.1,88.9 
	399.5,98.6 394.7,104.8 391.2,114.6 389.1,118.6 385.2,125.6 380.6,127.4 377.1,133.9 383.2,129.4 "/>
<polygon class="st3" points="449.5,198.2 447.7,203.8 447.7,203.8 "/>
<polygon class="st3" points="367.8,343.9 371.6,344.1 372.7,341.9 367.8,343.9 "/>
<polygon class="st3" points="300.8,375.7 303.6,362.5 318,339.7 331.9,321.7 339.7,310.8 350.3,275.3 354.7,268.5 365.4,254.7 
	357.9,272.4 354.6,304.8 354.6,324.3 350.3,338 324.9,352.5 308,371.2 305.1,383.2 315.6,383.2 320.6,373.3 348.8,342.9 
	361.1,343.5 363,341.7 375.1,336.7 387.6,310.1 389.1,327 393.3,322.5 395.7,306.3 398,296.8 405.8,290.8 401.1,297.6 399.5,309.4 
	398,324.3 393.3,332.8 389.7,334.5 391.9,359.9 398.7,365.3 405.6,358.5 415.4,351.4 429.6,326.3 455.1,307.5 459.3,274.1 
	451.5,239.5 445.3,211.6 437,210.5 421.6,217.5 409,236.1 403,246.9 404,239 415.7,218.1 420.7,214.5 428.4,209.4 422.8,197.2 
	418.2,197.2 415.3,201.2 416.8,197 416.8,190.9 413.8,189.9 412.4,183.5 405.2,172 395.2,170.8 384.2,171.9 386.8,178.3 
	385.8,187.9 385.1,180.4 381.5,172.2 371.7,173.2 366.5,176.4 363.8,181.2 358.5,187.1 358.5,187.1 358.5,187.1 349.8,204.9 
	343.1,229.9 312.5,278.4 307.5,297.7 288,328.2 276,347 252.2,373.4 240.1,383.2 291.8,383.2 "/>
<polygon class="st3" points="363.8,181.2 366.5,176.4 366.5,176.4 363.8,181.2 358.5,187.1 358.5,187.1 "/>
<polygon class="st3" points="451.5,239.5 459.3,274.1 445.3,211.6 "/>
<polygon class="st3" points="337.7,238.1 312.5,278.4 343.1,229.9 "/>
<polygon class="st3" points="373.9,171.9 371.7,173.2 381.5,172.2 381.3,171.9 "/>
<polygon class="st3" points="395.2,170.8 384.1,171.7 384.2,171.9 "/>
<polygon class="st1" points="413.5,189.9 416.3,190.9 416.3,197 418.4,197 422.8,197 428.4,209.3 445.3,211.6 447.7,203.8 
	430,183.8 429.8,183.7 423,179.3 415.7,174.6 415.7,174.6 405.2,172 412.4,183.5 "/>
<polygon class="st1" points="447.7,203.8 447.7,203.8 430,183.8 429.8,183.7 430,183.8 "/>
<polygon class="st1" points="415.7,174.6 415.7,174.6 405.2,172.3 405.2,172.3 415.7,174.6 "/>
<polygon class="st4" points="481,40.4 475.1,36.2 470.8,37 477.5,50.7 486,60.7 488.7,86.4 499.3,110.8 489.8,108.8 489.8,118.3 
	489.8,129.4 475.4,162.6 475.4,162.6 478.6,219.9 495.6,250 541.5,282 577,316.8 591.9,355.5 591.9,355.5 591.9,355.5 564.8,373.3 
	570.6,383.2 616.7,383.2 624.3,377 633.5,373.8 605.9,339.5 600,320.3 615.7,346 643.3,373.8 660.1,379.4 672,383.2 756,383.2 
	732.8,368.6 717.1,353.5 695.9,333.2 658.3,300.7 640.2,290.2 630.7,284.7 604.4,262.4 586.7,241 580.1,220 568.9,220 543.4,202 
	527.1,173.3 521.4,142.7 513.4,117.9 506.5,102.6 502.9,80.2 499.3,73 496.6,58.6 487,47.3 485.3,42.8 485.3,42.8 "/>
<polygon class="st4" points="478.6,219.9 495.6,250 541.5,282 577,316.8 591.9,355.5 591.9,355.5 577,316.8 541.5,282 495.6,250 
	478.6,219.9 475.4,162.6 475.4,162.6 475.4,162.6 "/>
<polygon class="st1" points="155.8,246.8 157.9,257.7 161.1,254.5 167.3,247.9 172.6,238.1 161.7,239.7 "/>
<polygon class="st1" points="211.4,215.8 211.4,230.1 191.2,219.9 190.7,229 196.3,246.2 186.6,238.1 178.8,235.2 180.6,250.2 
	175.3,258.9 176.7,275.8 186.6,281.1 194.1,293.7 191.9,300.7 187,304.8 201.5,310.8 195.7,304 195.7,297.9 208.2,290 228.1,279.5 
	242.3,267.6 258.3,239.7 264.5,231.9 257.4,222.9 242.3,214.4 230.8,210 222.8,203.5 216.1,196.8 214.3,195 214.3,195 214.3,195 
	207.1,196.8 207.1,219.1 "/>
<polygon class="st1" points="302.6,259 300.9,267.1 304.2,270.5 310.1,267.5 314.7,260.8 306.1,259 "/>
<polygon class="st1" points="304.2,270.5 300.9,267.1 300.8,267.6 304.2,270.5 310.1,267.6 315.1,260.9 314.7,260.8 310.1,267.5 "/>
<polygon class="st1" points="105.6,285.1 112,280.8 121,277.4 120,304.1 130.6,320.3 152.4,293.8 137,268.5 124.2,271.3 
	117.9,277.3 110.4,274.5 97.1,274.5 97.1,281.6 "/>
<polygon class="st1" points="120,304.1 120,304.1 130.6,320.3 152.4,293.8 152.4,293.8 130.6,320.3 "/>
<polygon class="st1" points="97.1,281.6 97.1,274.5 97.1,274.5 "/>
<polygon class="st1" points="586.7,241 604.4,262.4 615.8,261 625.7,252.1 634.2,250.2 641.7,247.8 630.3,217.2 621.8,209.9 
	614.7,197.8 600.8,197.8 600.8,202 588,204.9 580.1,215.2 572.4,217.2 580.1,220 "/>
<polygon class="st1" points="580.1,220 572.4,217.2 572.3,217.2 "/>
<polygon class="st1" points="750.5,324.8 737.8,336.4 733.5,344.8 723.9,351.4 717.1,353.5 732.8,368.6 756,383.2 836.1,383.2 
	832.1,380.1 820.4,375.9 813.3,370.4 803.4,367.5 784.6,343.3 780.3,340.6 761.2,318.7 756.9,320.6 754.4,322.2 754.4,322.2 "/>
<polygon class="st1" points="717.1,353.5 732.8,368.6 717.1,353.5 "/>
<polygon class="st1" points="671.8,282.6 667,279.8 660.7,282.6 651.9,284.1 645,289.1 640.2,290.2 658.3,300.7 695.9,333.2 
	717.1,353.5 723.9,351.4 733.5,344.8 737.8,336.4 750.5,324.8 754.4,322.2 743.4,311.2 736.5,307.5 736.2,302.9 723.4,290.9 
	714.9,274.9 705.9,260.6 701.9,259.2 695.8,262.4 690.2,268.5 686.2,268.5 678.5,273.3 672.7,281.4 672.7,281.4 "/>
<polygon class="st1" points="695.9,333.2 717.1,353.5 717.1,353.5 "/>
<polygon class="st1" points="640.2,290.2 658.3,300.7 640.2,290.2 "/>
<polygon class="st1" points="754.4,322.2 754.4,322.2 750.5,324.8 "/>
<polygon class="st1" points="625.7,252.1 615.8,261 604.4,262.4 630.7,284.7 640.2,290.2 645,289.1 651.9,284.1 660.7,282.6 
	667,279.8 671.8,282.6 672.7,281.4 663.6,273.1 650,256.9 647.9,251.9 641.7,247.8 634.2,250.2 "/>
<polygon class="st1" points="630.7,284.7 640.2,290.2 640.2,290.2 "/>
<polygon class="st1" points="672.7,281.4 672.7,281.4 671.8,282.6 "/>
<polygon class="st1" points="457.5,159.4 451.5,141.6 438.8,148.4 438.8,148.4 434,160.8 432.3,179.6 445.3,171.7 447.6,191.5 
	449.5,198.2 460.4,184.5 "/>
<polygon class="st1" points="438.8,148.4 438.8,148.4 434,160.8 438.8,148.4 "/>
<polygon class="st1" points="333.1,230.1 331.9,225 326.5,219.3 310.6,221.1 303.1,228.7 296.2,229.7 307.8,238.1 316.3,247.9 
	320.6,254.7 326.9,246.8 335.3,234.3 339.8,231.8 "/>
<path class="st2" d="M263.8,188.6l-7.6,12.2l-4.5-9.8l-6.3-7.6l0,0h0l0,0l-3.2,3.9l-18,17.3l6.5,5.3l11.4,4.3l15.2,8.5l2.4-3.6
	l0.2-10.6l0.5-5l10.1-18.6l-2,6.7l1.6,10.7l2.8,7.2l9.2,7l7.4,4.7l6.4,8.2l6.9-1l7.6-7.6l15.8-1.8l5.4,5.7l1.2,5.1l6.7,1.7l3.3-1.9
	l6.7-25l8.7-17.8l-3.2-16.2l-5.1-7.1l-7.2-1.4l8.8-26.3l3.2-30.6l-4.3,0.2l0.5-10.3l3.2-16l4.8-8.5L356.1,58l-11.4,21.7l-12.8,10.5
	L307.7,93l-12.2,29.1l-13.8,16.7l-3.5,19.2l-4.5,3.6l-7.6,11.8l-1.1,7.7l0,0.1L263.8,188.6z M304,141.6l3.7-15.4l2.7-7.6l7.6-10.7
	l11.2-8.2l2.7-9.5v0v0v14l-6.3,5.8l-5.1,12.9l-9.8,18.7l0.4,14.8l-9.2,14.4l1.8-5.1l-1.1-11.3l-6.4-7.1L304,141.6z"/>
<polygon class="st2" points="351.3,95.4 350.8,105.7 354.5,79.4 "/>
<polygon class="st1" points="233.1,196.2 242.3,187.4 245.5,183.5 238.6,185.1 233.3,185.1 227.8,187 221.2,195 216.1,196.8 
	222.8,203.5 224.3,204.7 "/>
<polygon class="st1" points="245.5,183.5 245.4,183.5 245.5,183.5 "/>
<polygon class="st1" points="216.1,196.8 222.8,203.5 216.1,196.8 "/>
<polygon class="st1" points="224.3,204.7 242.3,187.4 233.1,196.2 "/>
<polygon class="st2" points="221.2,195 227.8,187 233.3,185.1 238.6,185.1 245.4,183.5 240.3,183.5 234.1,183.5 227.6,184.6 
	219.9,188.8 218.4,192.1 214.3,195 216.1,196.8 "/>
<polygon class="st2" points="216.1,196.8 216.1,196.8 214.3,195 214.3,195 "/>
<polygon class="st2" points="245.5,183.5 245.5,183.5 245.5,183.5 "/>
<polygon class="st2" points="245.5,183.5 245.4,183.5 238.6,185.1 245.5,183.5 "/>
<polygon class="st1" points="256.2,200.8 263.8,188.6 264.9,181.2 256.2,182.8 249.9,182.2 245.5,183.5 251.8,191 "/>
<polygon class="st1" points="264.9,181.2 264.9,181.2 263.8,188.6 "/>
<polygon class="st2" points="249.9,182.2 256.2,182.8 264.9,181.2 264.9,181.1 265,180.4 259.9,181 255,182 248.1,181.7 
	240.3,183.5 245.5,183.5 "/>
<polygon class="st2" points="264.9,181.2 264.9,181.1 264.9,181.2 "/>
<polygon class="st1" points="270.3,202.5 268.7,191.8 270.7,185.1 265.9,194.2 260.6,203.7 260,208.7 259.9,219.3 257.4,222.9 
	264.5,231.9 274.2,220 282.4,216.7 273.2,209.8 "/>
<polygon class="st1" points="270.7,185.1 260.6,203.7 265.9,194.2 "/>
<polygon class="st3" points="398.7,365.3 391.9,359.9 389.2,334.7 381.4,338.3 372.7,341.9 371.6,344.1 367.8,343.9 354.2,350 
	361.1,343.5 348.8,342.9 320.6,373.3 315.6,383.2 379.3,383.2 393.7,370.1 "/>
<polygon class="st3" points="508.7,374.1 508.6,374.1 508.6,374 490.4,345.3 490.4,345.2 490.4,319.5 493.6,311.8 496.6,286.9 
	486.2,308.7 474.5,316.2 455.1,307.5 429.6,326.3 415.4,351.4 420.7,347.6 424.7,341.3 439.2,324.3 435.8,332.2 425.8,348.9 
	407.9,361.7 396.6,372.6 392.2,383.2 517,383.2 508.7,374.1 "/>
<polygon class="st3" points="388.5,327.5 388.1,324.3 387.6,310.1 375.1,336.7 382.7,333.6 "/>
<polygon class="st3" points="388.5,327.5 389.1,327 387.6,310.1 388.1,324.3 "/>
<polygon class="st3" points="391.9,359.9 389.7,334.5 389.2,334.7 "/>
<polygon class="st1" points="517.4,332.6 513.4,322.7 509.1,321.7 504.5,331.8 501.4,337.7 490.5,345.2 490.5,345.2 490.4,345.3 
	490.4,345.3 493.7,350.1 508.6,374 508.7,374.1 517,383.2 535.5,383.2 517.4,346.8 "/>
<polygon class="st1" points="541.5,375.3 535.5,383.2 570.6,383.2 564.8,373.3 "/>
<polygon class="st1" points="509.1,321.7 501.4,337.7 504.5,331.8 "/>
<polygon class="st1" points="501.4,337.7 490.5,345.2 490.5,345.2 "/>
<polygon class="st1" points="508.7,374.1 517,383.2 517,383.2 508.7,374.1 "/>
<polygon class="st1" points="493.7,350.1 490.4,345.3 508.6,374 "/>
<polygon class="st3" points="633.5,373.8 624.3,377 616.7,383.2 651.4,383.2 "/>
<polygon class="st5" points="672,383.2 660.1,379.4 633.5,373.8 651.4,383.2 "/>
<polygon class="st5" points="643.3,373.8 615.7,346 600,320.3 605.9,339.5 633.5,373.8 660.1,379.4 "/>
<polygon class="st1" points="303.7,165.6 301.9,170.8 311.1,156.4 310.7,141.6 320.6,122.9 325.7,110 331.9,104.2 331.9,90.3 
	329.2,99.7 318,107.9 310.4,118.6 307.7,126.2 304,141.6 296.2,147.2 302.6,154.3 "/>
<polygon class="st1" points="324.9,352.5 350.3,338 354.6,324.3 354.6,304.8 357.9,272.4 365.4,254.7 354.7,268.5 350.3,275.3 
	339.7,310.8 331.9,321.7 318,339.7 303.6,362.5 300.8,375.7 291.8,383.2 305.1,383.2 308,371.2 "/>
<polygon class="st1" points="413.8,354.3 415.4,351.4 405.6,358.5 398.7,365.3 399.8,366.2 "/>
<polygon class="st1" points="407.9,361.7 425.8,348.9 435.8,332.2 439.2,324.3 424.7,341.3 420.7,347.6 415.4,351.4 413.8,354.3 
	399.8,366.2 398.7,365.3 393.7,370.1 379.3,383 392.2,383 396.6,372.6 "/>
<polygon class="st1" points="367.8,343.9 372.7,341.9 375.1,336.7 363,341.7 361.1,343.5 367.8,343.9 "/>
<polygon class="st1" points="393.3,332.8 398,324.3 399.5,309.4 401.1,297.6 405.8,290.8 398,296.8 395.7,306.3 393.3,322.5 
	389.1,327 389.7,334.5 "/>
<polygon class="st1" points="367.8,343.9 361.1,343.5 354.2,350 "/>
<polygon class="st1" points="381.4,338.3 389.2,334.7 388.5,327.5 382.7,333.6 375.1,336.7 372.7,341.9 "/>
<polygon class="st1" points="389.2,334.7 389.7,334.5 389.1,327 388.5,327.5 "/>
<polygon class="st1" points="428.4,209.4 437,210.5 437,210.5 "/>
<polygon class="st1" points="420.7,214.5 415.7,218.1 404,239 403,246.9 409,236.1 421.6,217.5 437,210.5 428.4,209.4 "/>
<polygon class="st1" points="384.1,171.7 384.1,171.7 381.4,171.9 381.4,171.9 "/>
<polygon class="st1" points="381.4,171.9 381.4,171.9 381.3,171.9 "/>
<polygon class="st1" points="385.1,180.4 385.8,187.9 386.8,178.3 384.2,171.9 381.5,172.2 "/>
<polygon class="st1" points="381.4,172 381.3,172 381.5,172.3 384.2,171.9 384.1,171.7 381.4,172 "/>
<polygon class="st1" points="381.4,171.9 381.3,171.9 381.4,171.9 "/>
<polygon class="st1" points="417.3,197 416.8,197 416.8,197.2 418.2,197.2 418.4,197 "/>
<polygon class="st1" points="416.3,197 415,201.1 418.2,197 416.3,197 "/>
<polygon class="st2" points="448.1,10.6 450.6,2 456.6,0 444.6,2 432.6,12.7 424.5,16.6 435.6,15.1 "/>
<polygon class="st1" points="459.9,10.6 461.4,15.5 460.8,10.6 "/>
<polygon class="st1" points="451.5,141.6 451.5,141.6 451.5,141.6 475.4,162.6 489.8,129.4 489.8,118.3 489.8,108.8 499.3,110.8 
	488.7,86.4 486,60.7 477.5,50.7 470.8,37 468.1,29.1 457.7,25.1 457.1,16.6 456.6,17.9 450.6,21.2 445.5,38 445.3,43.3 450.6,73.3 
	450.6,95 435.4,104.3 434.8,110.2 440.4,110.8 439.1,120.3 435.1,131 438.8,148.4 "/>
<polygon class="st1" points="475.4,162.6 475.4,162.6 451.5,141.6 "/>
<polygon class="st1" points="435.1,131 438.8,148.4 438.8,148.4 "/>
<polygon class="st1" points="438.8,148.4 438.8,148.4 451.5,141.6 451.5,141.6 "/>
<polygon class="st1" points="438.8,148.4 438.8,148.4 438.8,148.4 "/>
<polygon class="st1" points="431.8,25.1 428.3,36.7 423.7,44.8 422.5,56.2 419.2,63.6 415.3,67.7 415.3,77.7 418.3,83.1 417.3,99.2 
	411.8,102.1 413.1,112 409.2,126.2 417,117.5 420.9,104.1 428,98.7 428.7,87.2 425,64.9 430.6,39.6 432.3,37 430.8,33.9 "/>
<polygon class="st3" points="431.8,25.1 430.8,33.9 432.3,37 445.5,38 450.6,21.2 456.6,17.9 457.1,16.6 457.7,25.1 468.1,29.1 
	470.8,37 475.1,36.2 475.1,36.2 482.3,34.9 485.3,42.8 478.4,21.2 471.5,19.6 465.4,8.8 460.8,10.6 461.4,15.5 456.6,0 450.6,2 
	448.1,10.6 435.6,15.1 424.5,16.6 419.2,33.4 428.3,36.7 "/>
<polygon class="st3" points="475.1,36.2 481,40.4 485.3,42.8 485.3,42.8 482.3,34.9 "/>
<polygon class="st2" points="344.7,79.8 356.1,58 357.7,39.3 369,28.9 340.4,43.2 329.8,69.1 321.3,82.5 307.7,93 331.9,90.3 "/>
<polygon class="st2" points="392,38 392.7,32 387.9,30.4 387.9,30.4 381.7,33.6 385.8,40 "/>
<polygon class="st2" points="387.9,30.4 387.9,30.4 387.9,30.4 "/>
</svg>
